<svg xmlns="http://www.w3.org/2000/svg" width="400" height="400"><path d="M 177 129 L 147 78 L 146 114 Z" stroke="#ede3cb" fill="#ede3cb"  /><path d="M 177 129 L 222 35 L 147 78 Z" stroke="#dad6b2" fill="#dad6b2"  /><path d="M 148 200 L 220 175 L 177 129 Z" stroke="#dfeeeb" fill="#dfeeeb"  /><path d="M 177 129 L 269 124 L 222 35 Z" stroke="#bed1b1" fill="#bed1b1"  /><path d="M 220 175 L 269 124 L 177 129 Z" stroke="#c5e0d4" fill="#c5e0d4"  /><path d="M 146 114 L 148 200 L 177 129 Z" stroke="#f3f0e9" fill="#f3f0e9"  /><path d="M 269 124 L 274 43 L 222 35 Z" stroke="#a5bc93" fill="#a5bc93"  /><path d="M 208 -43 L 98 -2 L 222 35 Z" stroke="#c2a782" fill="#c2a782"  /><path d="M 222 35 L 98 -2 L 147 78 Z" stroke="#dac09b" fill="#dac09b"  /><path d="M 147 78 L 34 111 L 146 114 Z" stroke="#e6d2a3" fill="#e6d2a3"  /><path d="M 146 114 L 45 213 L 148 200 Z" stroke="#e3e2cd" fill="#e3e2cd"  /><path d="M 25 56 L 34 111 L 147 78 Z" stroke="#dbbc77" fill="#dbbc77"  /><path d="M 290 -10 L 208 -43 L 222 35 Z" stroke="#93976e" fill="#93976e"  /><path d="M 211 276 L 261 221 L 220 175 Z" stroke="#93d3c9" fill="#93d3c9"  /><path d="M 220 175 L 261 221 L 269 124 Z" stroke="#addbd4" fill="#addbd4"  /><path d="M 98 -2 L 25 56 L 147 78 Z" stroke="#d4af6e" fill="#d4af6e"  /><path d="M 367 76 L 290 -10 L 274 43 Z" stroke="#849d72" fill="#849d72"  /><path d="M 274 43 L 290 -10 L 222 35 Z" stroke="#92a076" fill="#92a076"  /><path d="M 367 76 L 274 43 L 269 124 Z" stroke="#97ba90" fill="#97ba90"  /><path d="M -34 174 L 45 213 L 34 111 Z" stroke="#ceb38f" fill="#ceb38f"  /><path d="M 34 111 L 45 213 L 146 114 Z" stroke="#e6d4ab" fill="#e6d4ab"  /><path d="M 148 200 L 211 276 L 220 175 Z" stroke="#b3dfd8" fill="#b3dfd8"  /><path d="M 208 -43 L 142 -74 L 98 -2 Z" stroke="#cca880" fill="#cca880"  /><path d="M 98 -2 L 32 -13 L 25 56 Z" stroke="#bd8942" fill="#bd8942"  /><path d="M 195 -124 L 142 -74 L 208 -43 Z" stroke="#bea680" fill="#bea680"  /><path d="M 335 201 L 344 143 L 269 124 Z" stroke="#9ccfc5" fill="#9ccfc5"  /><path d="M 44 -91 L 32 -13 L 98 -2 Z" stroke="#bb843e" fill="#bb843e"  /><path d="M 125 298 L 211 276 L 148 200 Z" stroke="#b2ddd6" fill="#b2ddd6"  /><path d="M 261 221 L 335 201 L 269 124 Z" stroke="#97d1c8" fill="#97d1c8"  /><path d="M 290 -10 L 261 -72 L 208 -43 Z" stroke="#8e946a" fill="#8e946a"  /><path d="M 280 262 L 335 201 L 261 221 Z" stroke="#74c4b8" fill="#74c4b8"  /><path d="M 25 56 L -19 121 L 34 111 Z" stroke="#c99f60" fill="#c99f60"  /><path d="M -35 66 L -19 121 L 25 56 Z" stroke="#c3924c" fill="#c3924c"  /><path d="M 344 143 L 367 76 L 269 124 Z" stroke="#92bfa3" fill="#92bfa3"  /><path d="M 290 -10 L 341 -40 L 261 -72 Z" stroke="#7c8a5f" fill="#7c8a5f"  /><path d="M 402 137 L 367 76 L 344 143 Z" stroke="#81b69b" fill="#81b69b"  /><path d="M 211 276 L 280 262 L 261 221 Z" stroke="#77c8bb" fill="#77c8bb"  /><path d="M 45 213 L 125 298 L 148 200 Z" stroke="#b5d1b3" fill="#b5d1b3"  /><path d="M 211 276 L 256 332 L 280 262 Z" stroke="#69c0b2" fill="#69c0b2"  /><path d="M 32 -13 L -35 66 L 25 56 Z" stroke="#b67b35" fill="#b67b35"  /><path d="M 367 76 L 341 -40 L 290 -10 Z" stroke="#71875c" fill="#71875c"  /><path d="M -19 121 L -34 174 L 34 111 Z" stroke="#caa375" fill="#caa375"  /><path d="M 45 213 L 67 298 L 125 298 Z" stroke="#a3c097" fill="#a3c097"  /><path d="M -74 133 L -34 174 L -19 121 Z" stroke="#cba57a" fill="#cba57a"  /><path d="M 366 -127 L 195 -124 L 261 -72 Z" stroke="#868f65" fill="#868f65"  /><path d="M 261 -72 L 195 -124 L 208 -43 Z" stroke="#a19c74" fill="#a19c74"  /><path d="M 142 -74 L 44 -91 L 98 -2 Z" stroke="#c59657" fill="#c59657"  /><path d="M 35 323 L 67 298 L 45 213 Z" stroke="#95ac82" fill="#95ac82"  /><path d="M 195 -124 L 44 -91 L 142 -74 Z" stroke="#c9a06f" fill="#c9a06f"  /><path d="M 32 -13 L -48 -30 L -35 66 Z" stroke="#a9661f" fill="#a9661f"  /><path d="M 425 189 L 402 137 L 335 201 Z" stroke="#75bcb1" fill="#75bcb1"  /><path d="M 335 201 L 402 137 L 344 143 Z" stroke="#8ac6bd" fill="#8ac6bd"  /><path d="M 367 76 L 436 -15 L 341 -40 Z" stroke="#5d7b4e" fill="#5d7b4e"  /><path d="M 175 362 L 256 332 L 211 276 Z" stroke="#72c1b5" fill="#72c1b5"  /><path d="M 280 262 L 371 249 L 335 201 Z" stroke="#5fbaac" fill="#5fbaac"  /><path d="M 175 362 L 211 276 L 125 298 Z" stroke="#96cec6" fill="#96cec6"  /><path d="M 362 364 L 371 249 L 280 262 Z" stroke="#45ab9c" fill="#45ab9c"  /><path d="M -35 66 L -74 133 L -19 121 Z" stroke="#c69a5f" fill="#c69a5f"  /><path d="M -48 295 L 35 323 L 45 213 Z" stroke="#88956b" fill="#88956b"  /><path d="M -89 61 L -74 133 L -35 66 Z" stroke="#c39451" fill="#c39451"  /><path d="M 44 -91 L -48 -30 L 32 -13 Z" stroke="#a96720" fill="#a96720"  /><path d="M -48 -30 L -89 61 L -35 66 Z" stroke="#b2752e" fill="#b2752e"  /><path d="M 67 298 L 141 360 L 125 298 Z" stroke="#95c0a3" fill="#95c0a3"  /><path d="M 141 360 L 175 362 L 125 298 Z" stroke="#91c6b8" fill="#91c6b8"  /><path d="M 67 298 L 35 323 L 141 360 Z" stroke="#8db48a" fill="#8db48a"  /><path d="M -48 295 L 45 213 L -34 174 Z" stroke="#9c9a72" fill="#9c9a72"  /><path d="M 402 137 L 437 61 L 367 76 Z" stroke="#72a780" fill="#72a780"  /><path d="M 425 189 L 437 61 L 402 137 Z" stroke="#77b39c" fill="#77b39c"  /><path d="M 371 249 L 425 189 L 335 201 Z" stroke="#5db5a8" fill="#5db5a8"  /><path d="M -89 61 L -99 177 L -74 133 Z" stroke="#c99f6c" fill="#c99f6c"  /><path d="M -74 133 L -99 177 L -34 174 Z" stroke="#cdab87" fill="#cdab87"  /><path d="M 437 61 L 436 -15 L 367 76 Z" stroke="#628c5f" fill="#628c5f"  /><path d="M 341 -40 L 366 -127 L 261 -72 Z" stroke="#728459" fill="#728459"  /><path d="M 410 -90 L 366 -127 L 341 -40 Z" stroke="#5e794c" fill="#5e794c"  /><path d="M -48 -30 L -106 -18 L -89 61 Z" stroke="#a8641d" fill="#a8641d"  /><path d="M 44 -91 L -51 -96 L -48 -30 Z" stroke="#a6611a" fill="#a6611a"  /><path d="M 195 -124 L -51 -96 L 44 -91 Z" stroke="#bc8741" fill="#bc8741"  /><path d="M -106 264 L -48 295 L -34 174 Z" stroke="#91966c" fill="#91966c"  /><path d="M 120 445 L 175 362 L 141 360 Z" stroke="#7dbbab" fill="#7dbbab"  /><path d="M 436 -15 L 410 -90 L 341 -40 Z" stroke="#557447" fill="#557447"  /><path d="M -121 -91 L -106 -18 L -48 -30 Z" stroke="#a6611a" fill="#a6611a"  /><path d="M -89 61 L -106 -18 L -99 177 Z" stroke="#c08d47" fill="#c08d47"  /><path d="M 120 445 L 224 398 L 175 362 Z" stroke="#71baaf" fill="#71baaf"  /><path d="M 175 362 L 224 398 L 256 332 Z" stroke="#5fb7a9" fill="#5fb7a9"  /><path d="M 362 364 L 432 271 L 371 249 Z" stroke="#2f9f8e" fill="#2f9f8e"  /><path d="M 65 408 L 141 360 L 35 323 Z" stroke="#7eac80" fill="#7eac80"  /><path d="M -48 295 L -25 336 L 35 323 Z" stroke="#74855a" fill="#74855a"  /><path d="M 362 364 L 280 262 L 256 332 Z" stroke="#49ae9e" fill="#49ae9e"  /><path d="M 371 249 L 432 271 L 425 189 Z" stroke="#43aa9a" fill="#43aa9a"  /><path d="M 425 189 L 432 271 L 437 61 Z" stroke="#71baaf" fill="#71baaf"  /><path d="M -99 177 L -106 264 L -34 174 Z" stroke="#ada079" fill="#ada079"  /><path d="M -48 295 L -120 323 L -25 336 Z" stroke="#74855a" fill="#74855a"  /><path d="M -120 323 L -106 264 L -99 177 Z" stroke="#8d946a" fill="#8d946a"  /><path d="M 348 440 L 362 364 L 256 332 Z" stroke="#289b8a" fill="#289b8a"  /><path d="M -10 428 L 65 408 L 35 323 Z" stroke="#64885b" fill="#64885b"  /><path d="M -51 -96 L -121 -91 L -48 -30 Z" stroke="#a6611a" fill="#a6611a"  /><path d="M -106 -18 L -121 -91 L -99 177 Z" stroke="#ae6f28" fill="#ae6f28"  /><path d="M 195 -124 L -121 -91 L -51 -96 Z" stroke="#a9661f" fill="#a9661f"  /><path d="M 65 408 L 120 445 L 141 360 Z" stroke="#74ad8c" fill="#74ad8c"  /><path d="M 224 398 L 247 444 L 256 332 Z" stroke="#43aa9b" fill="#43aa9b"  /><path d="M 120 445 L 247 444 L 224 398 Z" stroke="#60b4a7" fill="#60b4a7"  /><path d="M 410 434 L 403 369 L 362 364 Z" stroke="#098976" fill="#098976"  /><path d="M 362 364 L 403 369 L 432 271 Z" stroke="#1b9482" fill="#1b9482"  /><path d="M -121 -91 L -120 323 L -99 177 Z" stroke="#caa376" fill="#caa376"  /><path d="M -106 264 L -120 323 L -48 295 Z" stroke="#7e8b60" fill="#7e8b60"  /><path d="M -25 336 L -10 428 L 35 323 Z" stroke="#627b4f" fill="#627b4f"  /><path d="M 65 408 L -10 428 L 120 445 Z" stroke="#68966a" fill="#68966a"  /><path d="M -104 425 L -10 428 L -25 336 Z" stroke="#557446" fill="#557446"  /><path d="M 247 444 L 348 440 L 256 332 Z" stroke="#2f9f8e" fill="#2f9f8e"  /><path d="M 348 440 L 410 434 L 362 364 Z" stroke="#0c8b78" fill="#0c8b78"  /><path d="M 403 369 L 410 434 L 432 271 Z" stroke="#128e7c" fill="#128e7c"  /><path d="M -120 323 L -104 425 L -25 336 Z" stroke="#637c4f" fill="#637c4f"  /><path d="M -10 428 L -104 425 L 120 445 Z" stroke="#547447" fill="#547447"  /></svg>