<svg xmlns="http://www.w3.org/2000/svg" width="900" height="500"><path d="M 423 234 L 474 307 L 495 236 Z" stroke="#b1ded7" fill="#b1ded7"  /><path d="M 423 234 L 410 309 L 474 307 Z" stroke="#acdcd4" fill="#acdcd4"  /><path d="M 474 307 L 536 264 L 495 236 Z" stroke="#9fd7cf" fill="#9fd7cf"  /><path d="M 536 264 L 552 192 L 495 236 Z" stroke="#addcd5" fill="#addcd5"  /><path d="M 495 236 L 466 125 L 423 234 Z" stroke="#d4e9e5" fill="#d4e9e5"  /><path d="M 423 234 L 333 264 L 410 309 Z" stroke="#c3e4df" fill="#c3e4df"  /><path d="M 390 374 L 514 379 L 474 307 Z" stroke="#89ccc2" fill="#89ccc2"  /><path d="M 474 307 L 560 351 L 536 264 Z" stroke="#83cec2" fill="#83cec2"  /><path d="M 536 264 L 629 227 L 552 192 Z" stroke="#a5d8d0" fill="#a5d8d0"  /><path d="M 390 374 L 474 307 L 410 309 Z" stroke="#9cd4cc" fill="#9cd4cc"  /><path d="M 310 336 L 390 374 L 410 309 Z" stroke="#abd9d2" fill="#abd9d2"  /><path d="M 514 379 L 560 351 L 474 307 Z" stroke="#79c7bb" fill="#79c7bb"  /><path d="M 552 192 L 466 125 L 495 236 Z" stroke="#c4e1d7" fill="#c4e1d7"  /><path d="M 423 234 L 311 198 L 333 264 Z" stroke="#e2eeeb" fill="#e2eeeb"  /><path d="M 629 227 L 559 153 L 552 192 Z" stroke="#b2dbd1" fill="#b2dbd1"  /><path d="M 552 192 L 559 153 L 466 125 Z" stroke="#bad8c3" fill="#bad8c3"  /><path d="M 466 125 L 419 117 L 423 234 Z" stroke="#d8e2d1" fill="#d8e2d1"  /><path d="M 419 117 L 344 160 L 423 234 Z" stroke="#e6eade" fill="#e6eade"  /><path d="M 344 160 L 311 198 L 423 234 Z" stroke="#f5f4f3" fill="#f5f4f3"  /><path d="M 560 351 L 616 309 L 536 264 Z" stroke="#78c8bc" fill="#78c8bc"  /><path d="M 277 276 L 310 336 L 333 264 Z" stroke="#bcdbcb" fill="#bcdbcb"  /><path d="M 333 264 L 310 336 L 410 309 Z" stroke="#b9dfd7" fill="#b9dfd7"  /><path d="M 616 309 L 629 227 L 536 264 Z" stroke="#8acec4" fill="#8acec4"  /><path d="M 311 198 L 280 237 L 333 264 Z" stroke="#dfe7db" fill="#dfe7db"  /><path d="M 280 237 L 277 276 L 333 264 Z" stroke="#cfe0d1" fill="#cfe0d1"  /><path d="M 390 374 L 490 447 L 514 379 Z" stroke="#79c3b8" fill="#79c3b8"  /><path d="M 514 379 L 566 424 L 560 351 Z" stroke="#64bdaf" fill="#64bdaf"  /><path d="M 560 351 L 653 359 L 616 309 Z" stroke="#67bfb1" fill="#67bfb1"  /><path d="M 397 465 L 490 447 L 390 374 Z" stroke="#7cc3b8" fill="#7cc3b8"  /><path d="M 559 153 L 473 73 L 466 125 Z" stroke="#bfd0af" fill="#bfd0af"  /><path d="M 466 125 L 473 73 L 419 117 Z" stroke="#ccd2af" fill="#ccd2af"  /><path d="M 419 117 L 364 79 L 344 160 Z" stroke="#e7dfc2" fill="#e7dfc2"  /><path d="M 490 447 L 566 424 L 514 379 Z" stroke="#60baac" fill="#60baac"  /><path d="M 419 43 L 364 79 L 419 117 Z" stroke="#d7cda9" fill="#d7cda9"  /><path d="M 344 160 L 251 151 L 311 198 Z" stroke="#eee5cf" fill="#eee5cf"  /><path d="M 311 198 L 251 151 L 280 237 Z" stroke="#f0e9d8" fill="#f0e9d8"  /><path d="M 311 432 L 397 465 L 390 374 Z" stroke="#91cac1" fill="#91cac1"  /><path d="M 625 419 L 653 359 L 560 351 Z" stroke="#5bb8aa" fill="#5bb8aa"  /><path d="M 616 309 L 698 226 L 629 227 Z" stroke="#88cbc1" fill="#88cbc1"  /><path d="M 252 421 L 311 432 L 310 336 Z" stroke="#98c6b1" fill="#98c6b1"  /><path d="M 310 336 L 311 432 L 390 374 Z" stroke="#9fcfc3" fill="#9fcfc3"  /><path d="M 473 73 L 419 43 L 419 117 Z" stroke="#cbc8a3" fill="#cbc8a3"  /><path d="M 397 465 L 470 489 L 490 447 Z" stroke="#67b9ac" fill="#67b9ac"  /><path d="M 490 447 L 551 527 L 566 424 Z" stroke="#4db0a0" fill="#4db0a0"  /><path d="M 629 227 L 638 127 L 559 153 Z" stroke="#abd2c1" fill="#abd2c1"  /><path d="M 559 153 L 583 67 L 473 73 Z" stroke="#afc79e" fill="#afc79e"  /><path d="M 473 73 L 434 -19 L 419 43 Z" stroke="#bcb28c" fill="#bcb28c"  /><path d="M 687 149 L 638 127 L 629 227 Z" stroke="#a3cebb" fill="#a3cebb"  /><path d="M 635 536 L 625 419 L 566 424 Z" stroke="#41a999" fill="#41a999"  /><path d="M 566 424 L 625 419 L 560 351 Z" stroke="#59b7a9" fill="#59b7a9"  /><path d="M 638 127 L 583 67 L 559 153 Z" stroke="#a8c6a2" fill="#a8c6a2"  /><path d="M 251 85 L 344 160 L 364 79 Z" stroke="#e8d8b0" fill="#e8d8b0"  /><path d="M 251 85 L 251 151 L 344 160 Z" stroke="#e9d9b2" fill="#e9d9b2"  /><path d="M 196 232 L 204 286 L 277 276 Z" stroke="#c7d5b7" fill="#c7d5b7"  /><path d="M 736 301 L 698 226 L 616 309 Z" stroke="#73c3b7" fill="#73c3b7"  /><path d="M 277 276 L 236 389 L 310 336 Z" stroke="#abcfb8" fill="#abcfb8"  /><path d="M 204 286 L 236 389 L 277 276 Z" stroke="#aecdaf" fill="#aecdaf"  /><path d="M 196 232 L 277 276 L 280 237 Z" stroke="#d2dcc4" fill="#d2dcc4"  /><path d="M 698 226 L 687 149 L 629 227 Z" stroke="#a3d4cc" fill="#a3d4cc"  /><path d="M 638 127 L 612 49 L 583 67 Z" stroke="#9eb78e" fill="#9eb78e"  /><path d="M 236 389 L 252 421 L 310 336 Z" stroke="#9bc5ab" fill="#9bc5ab"  /><path d="M 350 540 L 394 530 L 397 465 Z" stroke="#74bbb0" fill="#74bbb0"  /><path d="M 397 465 L 394 530 L 470 489 Z" stroke="#69b7ab" fill="#69b7ab"  /><path d="M 251 151 L 196 232 L 280 237 Z" stroke="#eae3cc" fill="#eae3cc"  /><path d="M 722 84 L 612 49 L 638 127 Z" stroke="#97b58b" fill="#97b58b"  /><path d="M 498 -37 L 434 -19 L 473 73 Z" stroke="#aca27b" fill="#aca27b"  /><path d="M 270 -9 L 251 85 L 364 79 Z" stroke="#d8bb8b" fill="#d8bb8b"  /><path d="M 251 151 L 204 152 L 196 232 Z" stroke="#eadbb8" fill="#eadbb8"  /><path d="M 350 540 L 397 465 L 311 432 Z" stroke="#81c0b5" fill="#81c0b5"  /><path d="M 470 489 L 551 527 L 490 447 Z" stroke="#50afa1" fill="#50afa1"  /><path d="M 215 79 L 204 152 L 251 151 Z" stroke="#e5cf9c" fill="#e5cf9c"  /><path d="M 394 530 L 551 527 L 470 489 Z" stroke="#57b1a3" fill="#57b1a3"  /><path d="M 635 536 L 690 420 L 625 419 Z" stroke="#3aa695" fill="#3aa695"  /><path d="M 625 419 L 690 420 L 653 359 Z" stroke="#4cb0a0" fill="#4cb0a0"  /><path d="M 653 359 L 736 301 L 616 309 Z" stroke="#62bcae" fill="#62bcae"  /><path d="M 738 344 L 736 301 L 653 359 Z" stroke="#57b6a7" fill="#57b6a7"  /><path d="M 782 162 L 722 84 L 687 149 Z" stroke="#91bd9d" fill="#91bd9d"  /><path d="M 498 -37 L 473 73 L 536 -35 Z" stroke="#9f9b73" fill="#9f9b73"  /><path d="M 419 43 L 324 -17 L 364 79 Z" stroke="#d5bb98" fill="#d5bb98"  /><path d="M 132 270 L 182 336 L 204 286 Z" stroke="#b0c69e" fill="#b0c69e"  /><path d="M 204 286 L 182 336 L 236 389 Z" stroke="#a5c5a1" fill="#a5c5a1"  /><path d="M 236 389 L 164 457 L 252 421 Z" stroke="#8bb793" fill="#8bb793"  /><path d="M 132 270 L 204 286 L 196 232 Z" stroke="#c5cea8" fill="#c5cea8"  /><path d="M 690 420 L 738 344 L 653 359 Z" stroke="#4db0a1" fill="#4db0a1"  /><path d="M 259 530 L 350 540 L 311 432 Z" stroke="#78b5a1" fill="#78b5a1"  /><path d="M 394 530 L 350 540 L 551 527 Z" stroke="#64b5a9" fill="#64b5a9"  /><path d="M 536 -35 L 473 73 L 583 67 Z" stroke="#a0a980" fill="#a0a980"  /><path d="M 270 -9 L 215 79 L 251 85 Z" stroke="#d5b47b" fill="#d5b47b"  /><path d="M 251 85 L 215 79 L 251 151 Z" stroke="#e3cc94" fill="#e3cc94"  /><path d="M 612 49 L 536 -35 L 583 67 Z" stroke="#94a077" fill="#94a077"  /><path d="M 410 -67 L 324 -17 L 434 -19 Z" stroke="#c4a883" fill="#c4a883"  /><path d="M 434 -19 L 324 -17 L 419 43 Z" stroke="#c4a984" fill="#c4a984"  /><path d="M 687 149 L 722 84 L 638 127 Z" stroke="#99be9b" fill="#99be9b"  /><path d="M 612 49 L 660 10 L 536 -35 Z" stroke="#8a956a" fill="#8a956a"  /><path d="M 782 162 L 687 149 L 698 226 Z" stroke="#98c9ba" fill="#98c9ba"  /><path d="M 722 84 L 660 10 L 612 49 Z" stroke="#8ba277" fill="#8ba277"  /><path d="M 551 527 L 635 536 L 566 424 Z" stroke="#3aa595" fill="#3aa595"  /><path d="M 690 420 L 766 387 L 738 344 Z" stroke="#44ab9b" fill="#44ab9b"  /><path d="M 350 540 L 635 536 L 551 527 Z" stroke="#4aac9d" fill="#4aac9d"  /><path d="M 132 141 L 196 232 L 204 152 Z" stroke="#e7d4a9" fill="#e7d4a9"  /><path d="M 132 141 L 133 239 L 196 232 Z" stroke="#e3d4b1" fill="#e3d4b1"  /><path d="M 133 239 L 132 270 L 196 232 Z" stroke="#cacba6" fill="#cacba6"  /><path d="M 324 -17 L 270 -9 L 364 79 Z" stroke="#d0ae83" fill="#d0ae83"  /><path d="M 835 311 L 814 262 L 736 301 Z" stroke="#58b5a7" fill="#58b5a7"  /><path d="M 801 228 L 782 162 L 698 226 Z" stroke="#91cac1" fill="#91cac1"  /><path d="M 788 440 L 766 387 L 690 420 Z" stroke="#37a393" fill="#37a393"  /><path d="M 177 510 L 259 530 L 252 421 Z" stroke="#77ad8a" fill="#77ad8a"  /><path d="M 252 421 L 259 530 L 311 432 Z" stroke="#82b89e" fill="#82b89e"  /><path d="M 164 457 L 236 389 L 118 386 Z" stroke="#8bb287" fill="#8bb287"  /><path d="M 498 -37 L 410 -67 L 434 -19 Z" stroke="#b1a17b" fill="#b1a17b"  /><path d="M 247 -81 L 194 -32 L 270 -9 Z" stroke="#c69a5e" fill="#c69a5e"  /><path d="M 466 -108 L 410 -67 L 498 -37 Z" stroke="#aea079" fill="#aea079"  /><path d="M 801 228 L 698 226 L 736 301 Z" stroke="#78c2b7" fill="#78c2b7"  /><path d="M 814 262 L 801 228 L 736 301 Z" stroke="#6abcaf" fill="#6abcaf"  /><path d="M 215 79 L 132 141 L 204 152 Z" stroke="#e2c98d" fill="#e2c98d"  /><path d="M 27 374 L 118 386 L 14 301 Z" stroke="#8a9c71" fill="#8a9c71"  /><path d="M 139 62 L 132 141 L 215 79 Z" stroke="#daba75" fill="#daba75"  /><path d="M 118 386 L 236 389 L 182 336 Z" stroke="#99ba91" fill="#99ba91"  /><path d="M 835 311 L 736 301 L 738 344 Z" stroke="#52b3a4" fill="#52b3a4"  /><path d="M 801 228 L 848 214 L 782 162 Z" stroke="#8ac6bd" fill="#8ac6bd"  /><path d="M 42 187 L 132 270 L 133 239 Z" stroke="#cbc09b" fill="#cbc09b"  /><path d="M 132 270 L 118 386 L 182 336 Z" stroke="#a0b88f" fill="#a0b88f"  /><path d="M 660 10 L 563 -84 L 536 -35 Z" stroke="#8b9268" fill="#8b9268"  /><path d="M 536 -35 L 563 -84 L 498 -37 Z" stroke="#95986f" fill="#95986f"  /><path d="M 563 -84 L 466 -108 L 498 -37 Z" stroke="#9d9a72" fill="#9d9a72"  /><path d="M 247 -81 L 270 -9 L 324 -17 Z" stroke="#c9a06d" fill="#c9a06d"  /><path d="M 118 500 L 177 510 L 164 457 Z" stroke="#6f9e72" fill="#6f9e72"  /><path d="M 164 457 L 177 510 L 252 421 Z" stroke="#7dad84" fill="#7dad84"  /><path d="M 730 540 L 788 440 L 690 420 Z" stroke="#299b8a" fill="#299b8a"  /><path d="M 766 387 L 835 311 L 738 344 Z" stroke="#47ad9d" fill="#47ad9d"  /><path d="M 194 -32 L 139 62 L 215 79 Z" stroke="#cda35e" fill="#cda35e"  /><path d="M 877 379 L 835 311 L 766 387 Z" stroke="#3ba695" fill="#3ba695"  /><path d="M 814 262 L 848 214 L 801 228 Z" stroke="#75beb3" fill="#75beb3"  /><path d="M 722 84 L 735 3 L 660 10 Z" stroke="#7f966b" fill="#7f966b"  /><path d="M 660 10 L 655 -103 L 563 -84 Z" stroke="#848e64" fill="#848e64"  /><path d="M 797 36 L 735 3 L 722 84 Z" stroke="#79966a" fill="#79966a"  /><path d="M 797 36 L 722 84 L 841 85 Z" stroke="#7b9f74" fill="#7b9f74"  /><path d="M 635 536 L 730 540 L 690 420 Z" stroke="#279b89" fill="#279b89"  /><path d="M 350 540 L 730 540 L 635 536 Z" stroke="#3ba695" fill="#3ba695"  /><path d="M 835 311 L 848 214 L 814 262 Z" stroke="#62b7aa" fill="#62b7aa"  /><path d="M 247 -81 L 324 -17 L 310 -114 Z" stroke="#c9a271" fill="#c9a271"  /><path d="M 270 -9 L 194 -32 L 215 79 Z" stroke="#c99e61" fill="#c99e61"  /><path d="M 118 386 L 113 460 L 164 457 Z" stroke="#7da277" fill="#7da277"  /><path d="M 45 437 L 113 460 L 118 386 Z" stroke="#79996d" fill="#79996d"  /><path d="M 310 -114 L 324 -17 L 410 -67 Z" stroke="#cda984" fill="#cda984"  /><path d="M 466 -108 L 310 -114 L 410 -67 Z" stroke="#c2a782" fill="#c2a782"  /><path d="M 841 85 L 722 84 L 782 162 Z" stroke="#86b28a" fill="#86b28a"  /><path d="M 113 460 L 118 500 L 164 457 Z" stroke="#719b6f" fill="#719b6f"  /><path d="M 177 510 L 50 534 L 259 530 Z" stroke="#6d9f72" fill="#6d9f72"  /><path d="M 848 214 L 846 115 L 782 162 Z" stroke="#84bba5" fill="#84bba5"  /><path d="M 706 -111 L 660 10 L 735 3 Z" stroke="#77875c" fill="#77875c"  /><path d="M 706 -111 L 655 -103 L 660 10 Z" stroke="#7b8a5f" fill="#7b8a5f"  /><path d="M 563 -84 L 655 -103 L 466 -108 Z" stroke="#8f956b" fill="#8f956b"  /><path d="M 466 -108 L 706 -111 L 310 -114 Z" stroke="#a29c74" fill="#a29c74"  /><path d="M 846 115 L 841 85 L 782 162 Z" stroke="#80b08c" fill="#80b08c"  /><path d="M 29 132 L 42 187 L 132 141 Z" stroke="#d3b17e" fill="#d3b17e"  /><path d="M 132 141 L 42 187 L 133 239 Z" stroke="#dcc49d" fill="#dcc49d"  /><path d="M 113 460 L 50 534 L 118 500 Z" stroke="#638d60" fill="#638d60"  /><path d="M 55 68 L 132 141 L 139 62 Z" stroke="#d1aa65" fill="#d1aa65"  /><path d="M 788 440 L 877 379 L 766 387 Z" stroke="#30a08f" fill="#30a08f"  /><path d="M 938 308 L 928 207 L 848 214 Z" stroke="#62b4a8" fill="#62b4a8"  /><path d="M 848 214 L 928 207 L 846 115 Z" stroke="#7dbaa9" fill="#7dbaa9"  /><path d="M 889 446 L 877 379 L 788 440 Z" stroke="#229886" fill="#229886"  /><path d="M 730 540 L 805 536 L 788 440 Z" stroke="#17927f" fill="#17927f"  /><path d="M 14 301 L 118 386 L 132 270 Z" stroke="#9bab82" fill="#9bab82"  /><path d="M 42 187 L 14 301 L 132 270 Z" stroke="#b9b18b" fill="#b9b18b"  /><path d="M 842 -16 L 812 -9 L 797 36 Z" stroke="#637d51" fill="#637d51"  /><path d="M 797 36 L 812 -9 L 735 3 Z" stroke="#6b8458" fill="#6b8458"  /><path d="M 27 374 L 45 437 L 118 386 Z" stroke="#7e966b" fill="#7e966b"  /><path d="M 59 5 L 55 68 L 139 62 Z" stroke="#c08e47" fill="#c08e47"  /><path d="M -63 231 L -30 315 L 14 301 Z" stroke="#9d9b72" fill="#9d9b72"  /><path d="M 109 -24 L 139 62 L 194 -32 Z" stroke="#be8a44" fill="#be8a44"  /><path d="M 55 68 L 29 132 L 132 141 Z" stroke="#cfa867" fill="#cfa867"  /><path d="M 812 -77 L 706 -111 L 735 3 Z" stroke="#6e8256" fill="#6e8256"  /><path d="M 655 -103 L 706 -111 L 466 -108 Z" stroke="#879066" fill="#879066"  /><path d="M 189 -104 L 194 -32 L 247 -81 Z" stroke="#c49656" fill="#c49656"  /><path d="M 115 -68 L 109 -24 L 194 -32 Z" stroke="#bc8740" fill="#bc8740"  /><path d="M 310 -114 L 189 -104 L 247 -81 Z" stroke="#c79b62" fill="#c79b62"  /><path d="M 805 536 L 854 496 L 788 440 Z" stroke="#138f7c" fill="#138f7c"  /><path d="M 854 496 L 889 446 L 788 440 Z" stroke="#17927f" fill="#17927f"  /><path d="M 938 308 L 848 214 L 835 311 Z" stroke="#52b0a2" fill="#52b0a2"  /><path d="M 846 115 L 914 62 L 841 85 Z" stroke="#72a174" fill="#72a174"  /><path d="M 841 85 L 842 -16 L 797 36 Z" stroke="#6a8b5f" fill="#6a8b5f"  /><path d="M 938 308 L 835 311 L 877 379 Z" stroke="#39a594" fill="#39a594"  /><path d="M 914 62 L 842 -16 L 841 85 Z" stroke="#668c5f" fill="#668c5f"  /><path d="M 812 -9 L 812 -77 L 735 3 Z" stroke="#687e52" fill="#687e52"  /><path d="M 62 -84 L 59 5 L 109 -24 Z" stroke="#b2762f" fill="#b2762f"  /><path d="M 109 -24 L 59 5 L 139 62 Z" stroke="#ba843d" fill="#ba843d"  /><path d="M -48 86 L -33 143 L 29 132 Z" stroke="#c59758" fill="#c59758"  /><path d="M 189 -104 L 115 -68 L 194 -32 Z" stroke="#c08e48" fill="#c08e48"  /><path d="M 14 301 L -13 342 L 27 374 Z" stroke="#889268" fill="#889268"  /><path d="M 27 374 L -36 462 L 45 437 Z" stroke="#6d8458" fill="#6d8458"  /><path d="M -30 315 L -13 342 L 14 301 Z" stroke="#8d946a" fill="#8d946a"  /><path d="M 929 382 L 938 308 L 877 379 Z" stroke="#2f9f8e" fill="#2f9f8e"  /><path d="M 938 418 L 929 382 L 877 379 Z" stroke="#239886" fill="#239886"  /><path d="M -36 462 L 50 534 L 45 437 Z" stroke="#5e7c4f" fill="#5e7c4f"  /><path d="M 45 437 L 50 534 L 113 460 Z" stroke="#668a5d" fill="#668a5d"  /><path d="M 118 500 L 50 534 L 177 510 Z" stroke="#669265" fill="#669265"  /><path d="M 259 530 L 50 534 L 350 540 Z" stroke="#72a984" fill="#72a984"  /><path d="M -63 231 L 14 301 L 42 187 Z" stroke="#b6a37d" fill="#b6a37d"  /><path d="M -13 342 L -36 462 L 27 374 Z" stroke="#76865b" fill="#76865b"  /><path d="M -33 143 L 42 187 L 29 132 Z" stroke="#caa36f" fill="#caa36f"  /><path d="M 842 -16 L 812 -77 L 812 -9 Z" stroke="#617b4e" fill="#617b4e"  /><path d="M 961 114 L 846 115 L 928 207 Z" stroke="#75af92" fill="#75af92"  /><path d="M 961 114 L 914 62 L 846 115 Z" stroke="#6fa276" fill="#6fa276"  /><path d="M 842 -16 L 876 -114 L 812 -77 Z" stroke="#5d794c" fill="#5d794c"  /><path d="M 929 382 L 938 418 L 938 308 Z" stroke="#2a9d8b" fill="#2a9d8b"  /><path d="M 889 446 L 938 418 L 877 379 Z" stroke="#1c9482" fill="#1c9482"  /><path d="M 916 534 L 938 418 L 889 446 Z" stroke="#0c8b78" fill="#0c8b78"  /><path d="M -48 86 L 29 132 L 55 68 Z" stroke="#c3924c" fill="#c3924c"  /><path d="M -33 143 L -63 231 L 42 187 Z" stroke="#cca880" fill="#cca880"  /><path d="M -119 344 L -36 462 L -13 342 Z" stroke="#79885d" fill="#79885d"  /><path d="M 938 308 L 961 114 L 928 207 Z" stroke="#75bbb0" fill="#75bbb0"  /><path d="M 914 62 L 923 11 L 842 -16 Z" stroke="#5a7d50" fill="#5a7d50"  /><path d="M 938 418 L 961 114 L 938 308 Z" stroke="#4cad9e" fill="#4cad9e"  /><path d="M 115 -68 L 62 -84 L 109 -24 Z" stroke="#b57b34" fill="#b57b34"  /><path d="M 59 5 L -48 86 L 55 68 Z" stroke="#b9813a" fill="#b9813a"  /><path d="M 189 -104 L 62 -84 L 115 -68 Z" stroke="#b9823c" fill="#b9823c"  /><path d="M 961 114 L 923 11 L 914 62 Z" stroke="#659164" fill="#659164"  /><path d="M 805 536 L 916 534 L 854 496 Z" stroke="#088976" fill="#088976"  /><path d="M 854 496 L 916 534 L 889 446 Z" stroke="#068874" fill="#068874"  /><path d="M 730 540 L 916 534 L 805 536 Z" stroke="#108d7a" fill="#108d7a"  /><path d="M -63 505 L -36 462 L -139 444 Z" stroke="#5d784b" fill="#5d784b"  /><path d="M -33 143 L -111 164 L -63 231 Z" stroke="#cba67b" fill="#cba67b"  /><path d="M -51 -32 L -48 86 L 59 5 Z" stroke="#ac6b24" fill="#ac6b24"  /><path d="M 923 11 L 876 -114 L 842 -16 Z" stroke="#577548" fill="#577548"  /><path d="M 812 -77 L 876 -114 L 706 -111 Z" stroke="#657d51" fill="#657d51"  /><path d="M 706 -111 L 876 -114 L 310 -114 Z" stroke="#838e63" fill="#838e63"  /><path d="M -119 344 L -13 342 L -30 315 Z" stroke="#889167" fill="#889167"  /><path d="M -36 462 L -63 505 L 50 534 Z" stroke="#547346" fill="#547346"  /><path d="M -48 86 L -111 164 L -33 143 Z" stroke="#c6995e" fill="#c6995e"  /><path d="M -63 231 L -120 267 L -30 315 Z" stroke="#a49d75" fill="#a49d75"  /><path d="M -97 43 L -111 164 L -48 86 Z" stroke="#c2904a" fill="#c2904a"  /><path d="M -138 237 L -120 267 L -63 231 Z" stroke="#b3a27c" fill="#b3a27c"  /><path d="M -120 267 L -119 344 L -30 315 Z" stroke="#90956c" fill="#90956c"  /><path d="M 62 -84 L -51 -32 L 59 5 Z" stroke="#aa6720" fill="#aa6720"  /><path d="M -130 8 L -138 237 L -111 164 Z" stroke="#c69b61" fill="#c69b61"  /><path d="M -111 164 L -138 237 L -63 231 Z" stroke="#c7a985" fill="#c7a985"  /><path d="M -120 267 L -138 237 L -119 344 Z" stroke="#9d9a72" fill="#9d9a72"  /><path d="M -51 -32 L -97 43 L -48 86 Z" stroke="#af712a" fill="#af712a"  /><path d="M -139 444 L -85 525 L -63 505 Z" stroke="#567547" fill="#567547"  /><path d="M -63 505 L -85 525 L 50 534 Z" stroke="#547346" fill="#547346"  /><path d="M 961 114 L 938 -114 L 923 11 Z" stroke="#557547" fill="#557547"  /><path d="M 923 11 L 938 -114 L 876 -114 Z" stroke="#547346" fill="#547346"  /><path d="M 62 -84 L -63 -72 L -51 -32 Z" stroke="#a6611a" fill="#a6611a"  /><path d="M -51 -32 L -130 8 L -97 43 Z" stroke="#a8641d" fill="#a8641d"  /><path d="M -103 -97 L -63 -72 L 62 -84 Z" stroke="#a6611a" fill="#a6611a"  /><path d="M -138 237 L -139 444 L -119 344 Z" stroke="#869065" fill="#869065"  /><path d="M -119 344 L -139 444 L -36 462 Z" stroke="#6e8256" fill="#6e8256"  /><path d="M -97 43 L -130 8 L -111 164 Z" stroke="#ba843d" fill="#ba843d"  /><path d="M -63 -72 L -130 8 L -51 -32 Z" stroke="#a6611a" fill="#a6611a"  /><path d="M 189 -104 L -103 -97 L 62 -84 Z" stroke="#ae6e28" fill="#ae6e28"  /><path d="M -63 -72 L -103 -97 L -130 8 Z" stroke="#a6611a" fill="#a6611a"  /><path d="M 310 -114 L -103 -97 L 189 -104 Z" stroke="#bb853e" fill="#bb853e"  /></svg>