<svg xmlns="http://www.w3.org/2000/svg" width="400" height="400"><path d="M 139 136 L 151 207 L 212 194 Z" stroke="#5cbd99" fill="#5cbd99"  /><path d="M 212 194 L 213 105 L 139 136 Z" stroke="#63bf9e" fill="#63bf9e"  /><path d="M 212 194 L 260 141 L 213 105 Z" stroke="#54b78c" fill="#54b78c"  /><path d="M 76 227 L 152 262 L 151 207 Z" stroke="#5cba92" fill="#5cba92"  /><path d="M 151 207 L 152 262 L 212 194 Z" stroke="#4cb385" fill="#4cb385"  /><path d="M 212 194 L 263 215 L 260 141 Z" stroke="#40ad77" fill="#40ad77"  /><path d="M 268 248 L 263 215 L 212 194 Z" stroke="#33a567" fill="#33a567"  /><path d="M 139 136 L 76 227 L 151 207 Z" stroke="#6dc4a6" fill="#6dc4a6"  /><path d="M 206 298 L 268 248 L 212 194 Z" stroke="#2fa363" fill="#2fa363"  /><path d="M 365 105 L 297 77 L 260 141 Z" stroke="#59b18b" fill="#59b18b"  /><path d="M 297 77 L 173 34 L 213 105 Z" stroke="#76c6a7" fill="#76c6a7"  /><path d="M 213 105 L 173 34 L 139 136 Z" stroke="#81cdb8" fill="#81cdb8"  /><path d="M 139 136 L 28 106 L 76 227 Z" stroke="#8dd3c4" fill="#8dd3c4"  /><path d="M 198 373 L 206 298 L 144 377 Z" stroke="#329b66" fill="#329b66"  /><path d="M 152 262 L 206 298 L 212 194 Z" stroke="#3daa73" fill="#3daa73"  /><path d="M 173 34 L 149 24 L 139 136 Z" stroke="#95d5c8" fill="#95d5c8"  /><path d="M 327 185 L 260 141 L 263 215 Z" stroke="#3ca772" fill="#3ca772"  /><path d="M 260 141 L 297 77 L 213 105 Z" stroke="#60ba93" fill="#60ba93"  /><path d="M 173 34 L 173 -19 L 149 24 Z" stroke="#a3dacb" fill="#a3dacb"  /><path d="M 268 248 L 327 185 L 263 215 Z" stroke="#2e9f62" fill="#2e9f62"  /><path d="M 36 52 L 28 106 L 139 136 Z" stroke="#aee0dd" fill="#aee0dd"  /><path d="M 149 24 L 36 52 L 139 136 Z" stroke="#a8ded9" fill="#a8ded9"  /><path d="M 265 -19 L 173 -19 L 173 34 Z" stroke="#9ad4bd" fill="#9ad4bd"  /><path d="M 149 24 L 26 -26 L 36 52 Z" stroke="#cdeced" fill="#cdeced"  /><path d="M -25 225 L 27 294 L 76 227 Z" stroke="#82c8a8" fill="#82c8a8"  /><path d="M 76 227 L 27 294 L 152 262 Z" stroke="#6abe9b" fill="#6abe9b"  /><path d="M 173 -19 L 147 -29 L 149 24 Z" stroke="#abded1" fill="#abded1"  /><path d="M 365 105 L 341 60 L 297 77 Z" stroke="#62b291" fill="#62b291"  /><path d="M 297 77 L 265 -19 L 173 34 Z" stroke="#81c8a7" fill="#81c8a7"  /><path d="M 327 185 L 365 105 L 260 141 Z" stroke="#46a87c" fill="#46a87c"  /><path d="M 198 373 L 294 330 L 206 298 Z" stroke="#229453" fill="#229453"  /><path d="M 206 298 L 294 330 L 268 248 Z" stroke="#239754" fill="#239754"  /><path d="M 268 248 L 369 258 L 327 185 Z" stroke="#249656" fill="#249656"  /><path d="M 327 185 L 410 140 L 365 105 Z" stroke="#3fa074" fill="#3fa074"  /><path d="M 341 60 L 265 -19 L 297 77 Z" stroke="#76bd9d" fill="#76bd9d"  /><path d="M 173 -19 L 224 -76 L 147 -29 Z" stroke="#a2d9c6" fill="#a2d9c6"  /><path d="M 28 106 L -25 225 L 76 227 Z" stroke="#96d4c0" fill="#96d4c0"  /><path d="M -34 121 L -25 225 L 28 106 Z" stroke="#aedfd3" fill="#aedfd3"  /><path d="M 144 377 L 206 298 L 152 262 Z" stroke="#3ca573" fill="#3ca573"  /><path d="M 27 294 L 144 377 L 152 262 Z" stroke="#58b18a" fill="#58b18a"  /><path d="M -15 39 L -34 121 L 28 106 Z" stroke="#cbebeb" fill="#cbebeb"  /><path d="M 327 332 L 369 258 L 268 248 Z" stroke="#1b8e4c" fill="#1b8e4c"  /><path d="M 270 406 L 327 332 L 294 330 Z" stroke="#148543" fill="#148543"  /><path d="M 294 330 L 327 332 L 268 248 Z" stroke="#1c8e4c" fill="#1c8e4c"  /><path d="M 26 -26 L -15 39 L 36 52 Z" stroke="#dff3f5" fill="#dff3f5"  /><path d="M 36 52 L -15 39 L 28 106 Z" stroke="#cfedee" fill="#cfedee"  /><path d="M -25 225 L -11 302 L 27 294 Z" stroke="#88c7a8" fill="#88c7a8"  /><path d="M 27 294 L 28 363 L 144 377 Z" stroke="#66b392" fill="#66b392"  /><path d="M 369 258 L 410 180 L 327 185 Z" stroke="#269358" fill="#269358"  /><path d="M 440 63 L 368 -16 L 341 60 Z" stroke="#6cb091" fill="#6cb091"  /><path d="M 410 180 L 410 140 L 327 185 Z" stroke="#329967" fill="#329967"  /><path d="M 147 -29 L 26 -26 L 149 24 Z" stroke="#c3e8e4" fill="#c3e8e4"  /><path d="M -11 302 L 28 363 L 27 294 Z" stroke="#7cbe9e" fill="#7cbe9e"  /><path d="M 369 258 L 405 254 L 410 180 Z" stroke="#1a8a4a" fill="#1a8a4a"  /><path d="M 420 359 L 405 254 L 369 258 Z" stroke="#0f7f3e" fill="#0f7f3e"  /><path d="M 274 -117 L 224 -76 L 265 -19 Z" stroke="#8bcbab" fill="#8bcbab"  /><path d="M 265 -19 L 224 -76 L 173 -19 Z" stroke="#94d1b5" fill="#94d1b5"  /><path d="M 147 -29 L 57 -98 L 26 -26 Z" stroke="#d1edef" fill="#d1edef"  /><path d="M 368 -16 L 265 -19 L 341 60 Z" stroke="#7ebe9e" fill="#7ebe9e"  /><path d="M 198 373 L 270 406 L 294 330 Z" stroke="#188a48" fill="#188a48"  /><path d="M 327 332 L 420 359 L 369 258 Z" stroke="#0f7f3e" fill="#0f7f3e"  /><path d="M 204 445 L 270 406 L 198 373 Z" stroke="#1c8b4c" fill="#1c8b4c"  /><path d="M 134 430 L 198 373 L 144 377 Z" stroke="#35996a" fill="#35996a"  /><path d="M -25 225 L -72 252 L -11 302 Z" stroke="#8acaaa" fill="#8acaaa"  /><path d="M -11 302 L -20 351 L 28 363 Z" stroke="#7fbd9d" fill="#7fbd9d"  /><path d="M -113 179 L -72 252 L -25 225 Z" stroke="#94d1b6" fill="#94d1b6"  /><path d="M -113 179 L -25 225 L -34 121 Z" stroke="#a4dac9" fill="#a4dac9"  /><path d="M 440 63 L 341 60 L 365 105 Z" stroke="#5dab8a" fill="#5dab8a"  /><path d="M 56 407 L 134 430 L 144 377 Z" stroke="#4aa17b" fill="#4aa17b"  /><path d="M -112 352 L -20 351 L -11 302 Z" stroke="#7fbd9e" fill="#7fbd9e"  /><path d="M 28 363 L 56 407 L 144 377 Z" stroke="#5dab8a" fill="#5dab8a"  /><path d="M -28 446 L 56 407 L 28 363 Z" stroke="#70b091" fill="#70b091"  /><path d="M -112 -15 L -77 61 L -15 39 Z" stroke="#e3f4f7" fill="#e3f4f7"  /><path d="M -15 39 L -77 61 L -34 121 Z" stroke="#d2eeef" fill="#d2eeef"  /><path d="M 134 430 L 204 445 L 198 373 Z" stroke="#2c9460" fill="#2c9460"  /><path d="M 224 -76 L 138 -113 L 147 -29 Z" stroke="#a6dbcb" fill="#a6dbcb"  /><path d="M 274 -117 L 138 -113 L 224 -76 Z" stroke="#97d3b9" fill="#97d3b9"  /><path d="M 57 -98 L -7 -52 L 26 -26 Z" stroke="#e4f5f7" fill="#e4f5f7"  /><path d="M 26 -26 L -7 -52 L -15 39 Z" stroke="#edf8fb" fill="#edf8fb"  /><path d="M 410 140 L 440 63 L 365 105 Z" stroke="#4ea37e" fill="#4ea37e"  /><path d="M 410 180 L 440 63 L 410 140 Z" stroke="#429e75" fill="#429e75"  /><path d="M 420 359 L 440 63 L 410 180 Z" stroke="#248f56" fill="#248f56"  /><path d="M -72 252 L -112 352 L -11 302 Z" stroke="#84c3a3" fill="#84c3a3"  /><path d="M -116 115 L -113 179 L -34 121 Z" stroke="#b4e1d8" fill="#b4e1d8"  /><path d="M 138 -113 L 57 -98 L 147 -29 Z" stroke="#bfe6e1" fill="#bfe6e1"  /><path d="M -112 -15 L -116 115 L -77 61 Z" stroke="#d9f1f3" fill="#d9f1f3"  /><path d="M -77 61 L -116 115 L -34 121 Z" stroke="#c6e9e7" fill="#c6e9e7"  /><path d="M 365 -90 L 274 -117 L 265 -19 Z" stroke="#84c3a3" fill="#84c3a3"  /><path d="M 204 445 L 342 420 L 270 406 Z" stroke="#128240" fill="#128240"  /><path d="M 270 406 L 342 420 L 327 332 Z" stroke="#0e7e3c" fill="#0e7e3c"  /><path d="M 342 420 L 420 359 L 327 332 Z" stroke="#097837" fill="#097837"  /><path d="M 405 254 L 420 359 L 410 180 Z" stroke="#138342" fill="#138342"  /><path d="M 368 -16 L 365 -90 L 265 -19 Z" stroke="#80be9e" fill="#80be9e"  /><path d="M 423 -90 L 365 -90 L 368 -16 Z" stroke="#79b596" fill="#79b596"  /><path d="M 57 -98 L -7 -107 L -7 -52 Z" stroke="#e8f6f9" fill="#e8f6f9"  /><path d="M -7 -52 L -112 -15 L -15 39 Z" stroke="#edf8fb" fill="#edf8fb"  /><path d="M 138 -113 L -7 -107 L 57 -98 Z" stroke="#d6eff1" fill="#d6eff1"  /><path d="M -98 -88 L -112 -15 L -7 -52 Z" stroke="#edf8fb" fill="#edf8fb"  /><path d="M -116 115 L -112 352 L -113 179 Z" stroke="#95d2b8" fill="#95d2b8"  /><path d="M -113 179 L -112 352 L -72 252 Z" stroke="#8acaaa" fill="#8acaaa"  /><path d="M -20 351 L -28 446 L 28 363 Z" stroke="#78b596" fill="#78b596"  /><path d="M 204 445 L 409 415 L 342 420 Z" stroke="#0b7b39" fill="#0b7b39"  /><path d="M 342 420 L 409 415 L 420 359 Z" stroke="#026f2e" fill="#026f2e"  /><path d="M 56 407 L -28 446 L 134 430 Z" stroke="#63ab8b" fill="#63ab8b"  /><path d="M 134 430 L -28 446 L 204 445 Z" stroke="#4ea37e" fill="#4ea37e"  /><path d="M -80 409 L -28 446 L -20 351 Z" stroke="#77b393" fill="#77b393"  /><path d="M 440 63 L 447 -52 L 368 -16 Z" stroke="#77b393" fill="#77b393"  /><path d="M -112 352 L -80 409 L -20 351 Z" stroke="#7bb798" fill="#7bb798"  /><path d="M 447 -52 L 423 -90 L 368 -16 Z" stroke="#77b393" fill="#77b393"  /><path d="M 365 -90 L 423 -90 L 274 -117 Z" stroke="#7dba9b" fill="#7dba9b"  /><path d="M -7 -107 L -98 -88 L -7 -52 Z" stroke="#edf8fb" fill="#edf8fb"  /></svg>