<svg xmlns="http://www.w3.org/2000/svg" width="900" height="500"><path d="M 423 234 L 474 307 L 495 236 Z" stroke="#44af7c" fill="#44af7c"  /><path d="M 423 234 L 410 309 L 474 307 Z" stroke="#42ae79" fill="#42ae79"  /><path d="M 474 307 L 536 264 L 495 236 Z" stroke="#3baa71" fill="#3baa71"  /><path d="M 536 264 L 552 192 L 495 236 Z" stroke="#42ae79" fill="#42ae79"  /><path d="M 495 236 L 466 125 L 423 234 Z" stroke="#56b991" fill="#56b991"  /><path d="M 423 234 L 333 264 L 410 309 Z" stroke="#4db487" fill="#4db487"  /><path d="M 390 374 L 514 379 L 474 307 Z" stroke="#33a268" fill="#33a268"  /><path d="M 474 307 L 560 351 L 536 264 Z" stroke="#2ea361" fill="#2ea361"  /><path d="M 536 264 L 629 227 L 552 192 Z" stroke="#3fab76" fill="#3fab76"  /><path d="M 390 374 L 474 307 L 410 309 Z" stroke="#3ba871" fill="#3ba871"  /><path d="M 310 336 L 390 374 L 410 309 Z" stroke="#43ac7b" fill="#43ac7b"  /><path d="M 514 379 L 560 351 L 474 307 Z" stroke="#2b9e5e" fill="#2b9e5e"  /><path d="M 552 192 L 466 125 L 495 236 Z" stroke="#55b88d" fill="#55b88d"  /><path d="M 423 234 L 311 198 L 333 264 Z" stroke="#5ebd9a" fill="#5ebd9a"  /><path d="M 629 227 L 559 153 L 552 192 Z" stroke="#4ab182" fill="#4ab182"  /><path d="M 552 192 L 559 153 L 466 125 Z" stroke="#5cba92" fill="#5cba92"  /><path d="M 466 125 L 419 117 L 423 234 Z" stroke="#69c2a2" fill="#69c2a2"  /><path d="M 419 117 L 344 160 L 423 234 Z" stroke="#6cc4a6" fill="#6cc4a6"  /><path d="M 344 160 L 311 198 L 423 234 Z" stroke="#67c2a5" fill="#67c2a5"  /><path d="M 560 351 L 616 309 L 536 264 Z" stroke="#299f5c" fill="#299f5c"  /><path d="M 277 276 L 310 336 L 333 264 Z" stroke="#57b88d" fill="#57b88d"  /><path d="M 333 264 L 310 336 L 410 309 Z" stroke="#4bb283" fill="#4bb283"  /><path d="M 616 309 L 629 227 L 536 264 Z" stroke="#32a367" fill="#32a367"  /><path d="M 311 198 L 280 237 L 333 264 Z" stroke="#67c1a2" fill="#67c1a2"  /><path d="M 280 237 L 277 276 L 333 264 Z" stroke="#62be9b" fill="#62be9b"  /><path d="M 390 374 L 490 447 L 514 379 Z" stroke="#2d9b61" fill="#2d9b61"  /><path d="M 514 379 L 566 424 L 560 351 Z" stroke="#229654" fill="#229654"  /><path d="M 560 351 L 653 359 L 616 309 Z" stroke="#239855" fill="#239855"  /><path d="M 397 465 L 490 447 L 390 374 Z" stroke="#309b65" fill="#309b65"  /><path d="M 559 153 L 473 73 L 466 125 Z" stroke="#6fc3a3" fill="#6fc3a3"  /><path d="M 466 125 L 473 73 L 419 117 Z" stroke="#7bc9b0" fill="#7bc9b0"  /><path d="M 419 117 L 364 79 L 344 160 Z" stroke="#82ceba" fill="#82ceba"  /><path d="M 490 447 L 566 424 L 514 379 Z" stroke="#229453" fill="#229453"  /><path d="M 419 43 L 364 79 L 419 117 Z" stroke="#8bd1be" fill="#8bd1be"  /><path d="M 344 160 L 251 151 L 311 198 Z" stroke="#7eccb7" fill="#7eccb7"  /><path d="M 311 198 L 251 151 L 280 237 Z" stroke="#79cab3" fill="#79cab3"  /><path d="M 311 432 L 397 465 L 390 374 Z" stroke="#3aa171" fill="#3aa171"  /><path d="M 625 419 L 653 359 L 560 351 Z" stroke="#1f9350" fill="#1f9350"  /><path d="M 616 309 L 698 226 L 629 227 Z" stroke="#33a167" fill="#33a167"  /><path d="M 252 421 L 311 432 L 310 336 Z" stroke="#4dab81" fill="#4dab81"  /><path d="M 310 336 L 311 432 L 390 374 Z" stroke="#45a97b" fill="#45a97b"  /><path d="M 473 73 L 419 43 L 419 117 Z" stroke="#86ceb7" fill="#86ceb7"  /><path d="M 397 465 L 470 489 L 490 447 Z" stroke="#28945b" fill="#28945b"  /><path d="M 490 447 L 551 527 L 566 424 Z" stroke="#1a8c4b" fill="#1a8c4b"  /><path d="M 629 227 L 638 127 L 559 153 Z" stroke="#51b286" fill="#51b286"  /><path d="M 559 153 L 583 67 L 473 73 Z" stroke="#70c2a1" fill="#70c2a1"  /><path d="M 473 73 L 434 -19 L 419 43 Z" stroke="#93d2bc" fill="#93d2bc"  /><path d="M 687 149 L 638 127 L 629 227 Z" stroke="#4eaf84" fill="#4eaf84"  /><path d="M 635 536 L 625 419 L 566 424 Z" stroke="#168846" fill="#168846"  /><path d="M 566 424 L 625 419 L 560 351 Z" stroke="#1f924f" fill="#1f924f"  /><path d="M 638 127 L 583 67 L 559 153 Z" stroke="#66bc98" fill="#66bc98"  /><path d="M 251 85 L 344 160 L 364 79 Z" stroke="#91d4c7" fill="#91d4c7"  /><path d="M 251 85 L 251 151 L 344 160 Z" stroke="#90d4c7" fill="#90d4c7"  /><path d="M 196 232 L 204 286 L 277 276 Z" stroke="#70c4a5" fill="#70c4a5"  /><path d="M 736 301 L 698 226 L 616 309 Z" stroke="#299b5c" fill="#299b5c"  /><path d="M 277 276 L 236 389 L 310 336 Z" stroke="#57b58c" fill="#57b58c"  /><path d="M 204 286 L 236 389 L 277 276 Z" stroke="#61bb94" fill="#61bb94"  /><path d="M 196 232 L 277 276 L 280 237 Z" stroke="#6fc4a6" fill="#6fc4a6"  /><path d="M 698 226 L 687 149 L 629 227 Z" stroke="#41a878" fill="#41a878"  /><path d="M 638 127 L 612 49 L 583 67 Z" stroke="#70bf9e" fill="#70bf9e"  /><path d="M 236 389 L 252 421 L 310 336 Z" stroke="#54af87" fill="#54af87"  /><path d="M 350 540 L 394 530 L 397 465 Z" stroke="#309664" fill="#309664"  /><path d="M 397 465 L 394 530 L 470 489 Z" stroke="#2a935d" fill="#2a935d"  /><path d="M 251 151 L 196 232 L 280 237 Z" stroke="#7dcbb6" fill="#7dcbb6"  /><path d="M 722 84 L 612 49 L 638 127 Z" stroke="#6cbb9a" fill="#6cbb9a"  /><path d="M 498 -37 L 434 -19 L 473 73 Z" stroke="#96d3ba" fill="#96d3ba"  /><path d="M 270 -9 L 251 85 L 364 79 Z" stroke="#a8ddd4" fill="#a8ddd4"  /><path d="M 251 151 L 204 152 L 196 232 Z" stroke="#8cd2c3" fill="#8cd2c3"  /><path d="M 350 540 L 397 465 L 311 432 Z" stroke="#379b6c" fill="#379b6c"  /><path d="M 470 489 L 551 527 L 490 447 Z" stroke="#1d8c4e" fill="#1d8c4e"  /><path d="M 215 79 L 204 152 L 251 151 Z" stroke="#9edad2" fill="#9edad2"  /><path d="M 394 530 L 551 527 L 470 489 Z" stroke="#218e53" fill="#218e53"  /><path d="M 635 536 L 690 420 L 625 419 Z" stroke="#148543" fill="#148543"  /><path d="M 625 419 L 690 420 L 653 359 Z" stroke="#1a8c4a" fill="#1a8c4a"  /><path d="M 653 359 L 736 301 L 616 309 Z" stroke="#229653" fill="#229653"  /><path d="M 738 344 L 736 301 L 653 359 Z" stroke="#1e914f" fill="#1e914f"  /><path d="M 782 162 L 722 84 L 687 149 Z" stroke="#57af89" fill="#57af89"  /><path d="M 498 -37 L 473 73 L 536 -35 Z" stroke="#92d0b4" fill="#92d0b4"  /><path d="M 419 43 L 324 -17 L 364 79 Z" stroke="#9ed8c9" fill="#9ed8c9"  /><path d="M 132 270 L 182 336 L 204 286 Z" stroke="#71c3a2" fill="#71c3a2"  /><path d="M 204 286 L 182 336 L 236 389 Z" stroke="#65bb97" fill="#65bb97"  /><path d="M 236 389 L 164 457 L 252 421 Z" stroke="#5aae8a" fill="#5aae8a"  /><path d="M 132 270 L 204 286 L 196 232 Z" stroke="#7ac8ae" fill="#7ac8ae"  /><path d="M 690 420 L 738 344 L 653 359 Z" stroke="#1a8d4b" fill="#1a8d4b"  /><path d="M 259 530 L 350 540 L 311 432 Z" stroke="#3e9c71" fill="#3e9c71"  /><path d="M 394 530 L 350 540 L 551 527 Z" stroke="#27915a" fill="#27915a"  /><path d="M 536 -35 L 473 73 L 583 67 Z" stroke="#84caaa" fill="#84caaa"  /><path d="M 270 -9 L 215 79 L 251 85 Z" stroke="#b2e2dd" fill="#b2e2dd"  /><path d="M 251 85 L 215 79 L 251 151 Z" stroke="#a4dcd6" fill="#a4dcd6"  /><path d="M 612 49 L 536 -35 L 583 67 Z" stroke="#82c7a7" fill="#82c7a7"  /><path d="M 410 -67 L 324 -17 L 434 -19 Z" stroke="#a5daca" fill="#a5daca"  /><path d="M 434 -19 L 324 -17 L 419 43 Z" stroke="#a4dac9" fill="#a4dac9"  /><path d="M 687 149 L 722 84 L 638 127 Z" stroke="#5fb490" fill="#5fb490"  /><path d="M 612 49 L 660 10 L 536 -35 Z" stroke="#86c8a8" fill="#86c8a8"  /><path d="M 782 162 L 687 149 L 698 226 Z" stroke="#46a87b" fill="#46a87b"  /><path d="M 722 84 L 660 10 L 612 49 Z" stroke="#77bf9e" fill="#77bf9e"  /><path d="M 551 527 L 635 536 L 566 424 Z" stroke="#148543" fill="#148543"  /><path d="M 690 420 L 766 387 L 738 344 Z" stroke="#178947" fill="#178947"  /><path d="M 350 540 L 635 536 L 551 527 Z" stroke="#1b8a4b" fill="#1b8a4b"  /><path d="M 132 141 L 196 232 L 204 152 Z" stroke="#96d6cb" fill="#96d6cb"  /><path d="M 132 141 L 133 239 L 196 232 Z" stroke="#8fd3c3" fill="#8fd3c3"  /><path d="M 133 239 L 132 270 L 196 232 Z" stroke="#83ccb5" fill="#83ccb5"  /><path d="M 324 -17 L 270 -9 L 364 79 Z" stroke="#addfd4" fill="#addfd4"  /><path d="M 835 311 L 814 262 L 736 301 Z" stroke="#1f9150" fill="#1f9150"  /><path d="M 801 228 L 782 162 L 698 226 Z" stroke="#3aa170" fill="#3aa170"  /><path d="M 788 440 L 766 387 L 690 420 Z" stroke="#138342" fill="#138342"  /><path d="M 177 510 L 259 530 L 252 421 Z" stroke="#50a580" fill="#50a580"  /><path d="M 252 421 L 259 530 L 311 432 Z" stroke="#49a47c" fill="#49a47c"  /><path d="M 164 457 L 236 389 L 118 386 Z" stroke="#64b493" fill="#64b493"  /><path d="M 498 -37 L 410 -67 L 434 -19 Z" stroke="#9bd5bf" fill="#9bd5bf"  /><path d="M 247 -81 L 194 -32 L 270 -9 Z" stroke="#c3e8e5" fill="#c3e8e5"  /><path d="M 466 -108 L 410 -67 L 498 -37 Z" stroke="#9ad4bd" fill="#9ad4bd"  /><path d="M 801 228 L 698 226 L 736 301 Z" stroke="#2d9b61" fill="#2d9b61"  /><path d="M 814 262 L 801 228 L 736 301 Z" stroke="#28965a" fill="#28965a"  /><path d="M 215 79 L 132 141 L 204 152 Z" stroke="#a8deda" fill="#a8deda"  /><path d="M 27 374 L 118 386 L 14 301 Z" stroke="#7ec3a2" fill="#7ec3a2"  /><path d="M 139 62 L 132 141 L 215 79 Z" stroke="#b7e4e4" fill="#b7e4e4"  /><path d="M 118 386 L 236 389 L 182 336 Z" stroke="#67b998" fill="#67b998"  /><path d="M 835 311 L 736 301 L 738 344 Z" stroke="#1c8f4c" fill="#1c8f4c"  /><path d="M 801 228 L 848 214 L 782 162 Z" stroke="#389e6e" fill="#389e6e"  /><path d="M 42 187 L 132 270 L 133 239 Z" stroke="#8fd2bd" fill="#8fd2bd"  /><path d="M 132 270 L 118 386 L 182 336 Z" stroke="#72c09f" fill="#72c09f"  /><path d="M 660 10 L 563 -84 L 536 -35 Z" stroke="#8acaaa" fill="#8acaaa"  /><path d="M 536 -35 L 563 -84 L 498 -37 Z" stroke="#8eceae" fill="#8eceae"  /><path d="M 563 -84 L 466 -108 L 498 -37 Z" stroke="#91d0b3" fill="#91d0b3"  /><path d="M 247 -81 L 270 -9 L 324 -17 Z" stroke="#bae4dd" fill="#bae4dd"  /><path d="M 118 500 L 177 510 L 164 457 Z" stroke="#5fab8a" fill="#5fab8a"  /><path d="M 164 457 L 177 510 L 252 421 Z" stroke="#59ab89" fill="#59ab89"  /><path d="M 730 540 L 788 440 L 690 420 Z" stroke="#0e7d3c" fill="#0e7d3c"  /><path d="M 766 387 L 835 311 L 738 344 Z" stroke="#188a48" fill="#188a48"  /><path d="M 194 -32 L 139 62 L 215 79 Z" stroke="#c4e9e9" fill="#c4e9e9"  /><path d="M 877 379 L 835 311 L 766 387 Z" stroke="#148543" fill="#148543"  /><path d="M 814 262 L 848 214 L 801 228 Z" stroke="#2e9862" fill="#2e9862"  /><path d="M 722 84 L 735 3 L 660 10 Z" stroke="#79bd9d" fill="#79bd9d"  /><path d="M 660 10 L 655 -103 L 563 -84 Z" stroke="#87c7a7" fill="#87c7a7"  /><path d="M 797 36 L 735 3 L 722 84 Z" stroke="#73b999" fill="#73b999"  /><path d="M 797 36 L 722 84 L 841 85 Z" stroke="#69b393" fill="#69b393"  /><path d="M 635 536 L 730 540 L 690 420 Z" stroke="#0d7d3b" fill="#0d7d3b"  /><path d="M 350 540 L 730 540 L 635 536 Z" stroke="#148543" fill="#148543"  /><path d="M 835 311 L 848 214 L 814 262 Z" stroke="#259357" fill="#259357"  /><path d="M 247 -81 L 324 -17 L 310 -114 Z" stroke="#b8e3db" fill="#b8e3db"  /><path d="M 270 -9 L 194 -32 L 215 79 Z" stroke="#c2e7e5" fill="#c2e7e5"  /><path d="M 118 386 L 113 460 L 164 457 Z" stroke="#68b393" fill="#68b393"  /><path d="M 45 437 L 113 460 L 118 386 Z" stroke="#6fb696" fill="#6fb696"  /><path d="M 310 -114 L 324 -17 L 410 -67 Z" stroke="#acded2" fill="#acded2"  /><path d="M 466 -108 L 310 -114 L 410 -67 Z" stroke="#a4dac9" fill="#a4dac9"  /><path d="M 841 85 L 722 84 L 782 162 Z" stroke="#5caf8c" fill="#5caf8c"  /><path d="M 113 460 L 118 500 L 164 457 Z" stroke="#64ae8e" fill="#64ae8e"  /><path d="M 177 510 L 50 534 L 259 530 Z" stroke="#5ca988" fill="#5ca988"  /><path d="M 848 214 L 846 115 L 782 162 Z" stroke="#45a379" fill="#45a379"  /><path d="M 706 -111 L 660 10 L 735 3 Z" stroke="#83c1a2" fill="#83c1a2"  /><path d="M 706 -111 L 655 -103 L 660 10 Z" stroke="#84c3a4" fill="#84c3a4"  /><path d="M 563 -84 L 655 -103 L 466 -108 Z" stroke="#8bcbab" fill="#8bcbab"  /><path d="M 466 -108 L 706 -111 L 310 -114 Z" stroke="#94d1b6" fill="#94d1b6"  /><path d="M 846 115 L 841 85 L 782 162 Z" stroke="#56aa86" fill="#56aa86"  /><path d="M 29 132 L 42 187 L 132 141 Z" stroke="#b0e0d9" fill="#b0e0d9"  /><path d="M 132 141 L 42 187 L 133 239 Z" stroke="#9dd9cc" fill="#9dd9cc"  /><path d="M 113 460 L 50 534 L 118 500 Z" stroke="#67ad8d" fill="#67ad8d"  /><path d="M 55 68 L 132 141 L 139 62 Z" stroke="#c1e7e8" fill="#c1e7e8"  /><path d="M 788 440 L 877 379 L 766 387 Z" stroke="#10813f" fill="#10813f"  /><path d="M 938 308 L 928 207 L 848 214 Z" stroke="#279159" fill="#279159"  /><path d="M 848 214 L 928 207 L 846 115 Z" stroke="#3d9d70" fill="#3d9d70"  /><path d="M 889 446 L 877 379 L 788 440 Z" stroke="#0c7b39" fill="#0c7b39"  /><path d="M 730 540 L 805 536 L 788 440 Z" stroke="#087635" fill="#087635"  /><path d="M 14 301 L 118 386 L 132 270 Z" stroke="#7cc5a4" fill="#7cc5a4"  /><path d="M 42 187 L 14 301 L 132 270 Z" stroke="#90d1b9" fill="#90d1b9"  /><path d="M 842 -16 L 812 -9 L 797 36 Z" stroke="#7ab899" fill="#7ab899"  /><path d="M 797 36 L 812 -9 L 735 3 Z" stroke="#7bba9b" fill="#7bba9b"  /><path d="M 27 374 L 45 437 L 118 386 Z" stroke="#77bc9c" fill="#77bc9c"  /><path d="M 59 5 L 55 68 L 139 62 Z" stroke="#d2eef0" fill="#d2eef0"  /><path d="M -63 231 L -30 315 L 14 301 Z" stroke="#92d0b3" fill="#92d0b3"  /><path d="M 109 -24 L 139 62 L 194 -32 Z" stroke="#d4eff1" fill="#d4eff1"  /><path d="M 55 68 L 29 132 L 132 141 Z" stroke="#bfe6e5" fill="#bfe6e5"  /><path d="M 812 -77 L 706 -111 L 735 3 Z" stroke="#80bd9e" fill="#80bd9e"  /><path d="M 655 -103 L 706 -111 L 466 -108 Z" stroke="#88c8a8" fill="#88c8a8"  /><path d="M 189 -104 L 194 -32 L 247 -81 Z" stroke="#c9eae9" fill="#c9eae9"  /><path d="M 115 -68 L 109 -24 L 194 -32 Z" stroke="#d6eff1" fill="#d6eff1"  /><path d="M 310 -114 L 189 -104 L 247 -81 Z" stroke="#c1e7e3" fill="#c1e7e3"  /><path d="M 805 536 L 854 496 L 788 440 Z" stroke="#067433" fill="#067433"  /><path d="M 854 496 L 889 446 L 788 440 Z" stroke="#087635" fill="#087635"  /><path d="M 938 308 L 848 214 L 835 311 Z" stroke="#1e8d4f" fill="#1e8d4f"  /><path d="M 846 115 L 914 62 L 841 85 Z" stroke="#5fab8b" fill="#5fab8b"  /><path d="M 841 85 L 842 -16 L 797 36 Z" stroke="#71b494" fill="#71b494"  /><path d="M 938 308 L 835 311 L 877 379 Z" stroke="#138443" fill="#138443"  /><path d="M 914 62 L 842 -16 L 841 85 Z" stroke="#6cb090" fill="#6cb090"  /><path d="M 812 -9 L 812 -77 L 735 3 Z" stroke="#7dbb9c" fill="#7dbb9c"  /><path d="M 62 -84 L 59 5 L 109 -24 Z" stroke="#e0f3f6" fill="#e0f3f6"  /><path d="M 109 -24 L 59 5 L 139 62 Z" stroke="#d8f0f2" fill="#d8f0f2"  /><path d="M -48 86 L -33 143 L 29 132 Z" stroke="#c8eae8" fill="#c8eae8"  /><path d="M 189 -104 L 115 -68 L 194 -32 Z" stroke="#d2eeef" fill="#d2eeef"  /><path d="M 14 301 L -13 342 L 27 374 Z" stroke="#87c7a7" fill="#87c7a7"  /><path d="M 27 374 L -36 462 L 45 437 Z" stroke="#7dbc9c" fill="#7dbc9c"  /><path d="M -30 315 L -13 342 L 14 301 Z" stroke="#8acaab" fill="#8acaab"  /><path d="M 929 382 L 938 308 L 877 379 Z" stroke="#10803e" fill="#10803e"  /><path d="M 938 418 L 929 382 L 877 379 Z" stroke="#0c7b3a" fill="#0c7b3a"  /><path d="M -36 462 L 50 534 L 45 437 Z" stroke="#76b495" fill="#76b495"  /><path d="M 45 437 L 50 534 L 113 460 Z" stroke="#6eb192" fill="#6eb192"  /><path d="M 118 500 L 50 534 L 177 510 Z" stroke="#64ab8c" fill="#64ab8c"  /><path d="M 259 530 L 50 534 L 350 540 Z" stroke="#51a480" fill="#51a480"  /><path d="M -63 231 L 14 301 L 42 187 Z" stroke="#9ed7c2" fill="#9ed7c2"  /><path d="M -13 342 L -36 462 L 27 374 Z" stroke="#82c1a1" fill="#82c1a1"  /><path d="M -33 143 L 42 187 L 29 132 Z" stroke="#b9e4dd" fill="#b9e4dd"  /><path d="M 842 -16 L 812 -77 L 812 -9 Z" stroke="#7bb899" fill="#7bb899"  /><path d="M 961 114 L 846 115 L 928 207 Z" stroke="#48a079" fill="#48a079"  /><path d="M 961 114 L 914 62 L 846 115 Z" stroke="#5aa887" fill="#5aa887"  /><path d="M 842 -16 L 876 -114 L 812 -77 Z" stroke="#7ab798" fill="#7ab798"  /><path d="M 929 382 L 938 418 L 938 308 Z" stroke="#0e7e3d" fill="#0e7e3d"  /><path d="M 889 446 L 938 418 L 877 379 Z" stroke="#097837" fill="#097837"  /><path d="M 916 534 L 938 418 L 889 446 Z" stroke="#047230" fill="#047230"  /><path d="M -48 86 L 29 132 L 55 68 Z" stroke="#cfedee" fill="#cfedee"  /><path d="M -33 143 L -63 231 L 42 187 Z" stroke="#aedfd4" fill="#aedfd4"  /><path d="M -119 344 L -36 462 L -13 342 Z" stroke="#83c2a2" fill="#83c2a2"  /><path d="M 938 308 L 961 114 L 928 207 Z" stroke="#309665" fill="#309665"  /><path d="M 914 62 L 923 11 L 842 -16 Z" stroke="#71b192" fill="#71b192"  /><path d="M 938 418 L 961 114 L 938 308 Z" stroke="#1c8b4c" fill="#1c8b4c"  /><path d="M 115 -68 L 62 -84 L 109 -24 Z" stroke="#ddf2f4" fill="#ddf2f4"  /><path d="M 59 5 L -48 86 L 55 68 Z" stroke="#daf1f3" fill="#daf1f3"  /><path d="M 189 -104 L 62 -84 L 115 -68 Z" stroke="#d9f1f3" fill="#d9f1f3"  /><path d="M 961 114 L 923 11 L 914 62 Z" stroke="#64ac8c" fill="#64ac8c"  /><path d="M 805 536 L 916 534 L 854 496 Z" stroke="#03702f" fill="#03702f"  /><path d="M 854 496 L 916 534 L 889 446 Z" stroke="#026f2e" fill="#026f2e"  /><path d="M 730 540 L 916 534 L 805 536 Z" stroke="#057332" fill="#057332"  /><path d="M -63 505 L -36 462 L -139 444 Z" stroke="#7ab697" fill="#7ab697"  /><path d="M -33 143 L -111 164 L -63 231 Z" stroke="#b1e0d6" fill="#b1e0d6"  /><path d="M -51 -32 L -48 86 L 59 5 Z" stroke="#e7f6f9" fill="#e7f6f9"  /><path d="M 923 11 L 876 -114 L 842 -16 Z" stroke="#78b495" fill="#78b495"  /><path d="M 812 -77 L 876 -114 L 706 -111 Z" stroke="#7dba9b" fill="#7dba9b"  /><path d="M 706 -111 L 876 -114 L 310 -114 Z" stroke="#87c6a7" fill="#87c6a7"  /><path d="M -119 344 L -13 342 L -30 315 Z" stroke="#89c9a9" fill="#89c9a9"  /><path d="M -36 462 L -63 505 L 50 534 Z" stroke="#77b393" fill="#77b393"  /><path d="M -48 86 L -111 164 L -33 143 Z" stroke="#c4e8e5" fill="#c4e8e5"  /><path d="M -63 231 L -120 267 L -30 315 Z" stroke="#95d2b7" fill="#95d2b7"  /><path d="M -97 43 L -111 164 L -48 86 Z" stroke="#d0edef" fill="#d0edef"  /><path d="M -138 237 L -120 267 L -63 231 Z" stroke="#9cd6c0" fill="#9cd6c0"  /><path d="M -120 267 L -119 344 L -30 315 Z" stroke="#8cccac" fill="#8cccac"  /><path d="M 62 -84 L -51 -32 L 59 5 Z" stroke="#e9f7f9" fill="#e9f7f9"  /><path d="M -130 8 L -138 237 L -111 164 Z" stroke="#c2e7e3" fill="#c2e7e3"  /><path d="M -111 164 L -138 237 L -63 231 Z" stroke="#a6dbcc" fill="#a6dbcc"  /><path d="M -120 267 L -138 237 L -119 344 Z" stroke="#92d0b3" fill="#92d0b3"  /><path d="M -51 -32 L -97 43 L -48 86 Z" stroke="#e3f4f7" fill="#e3f4f7"  /><path d="M -139 444 L -85 525 L -63 505 Z" stroke="#77b495" fill="#77b495"  /><path d="M -63 505 L -85 525 L 50 534 Z" stroke="#77b393" fill="#77b393"  /><path d="M 961 114 L 938 -114 L 923 11 Z" stroke="#75b293" fill="#75b293"  /><path d="M 923 11 L 938 -114 L 876 -114 Z" stroke="#77b393" fill="#77b393"  /><path d="M 62 -84 L -63 -72 L -51 -32 Z" stroke="#edf8fb" fill="#edf8fb"  /><path d="M -51 -32 L -130 8 L -97 43 Z" stroke="#ebf7fa" fill="#ebf7fa"  /><path d="M -103 -97 L -63 -72 L 62 -84 Z" stroke="#edf8fb" fill="#edf8fb"  /><path d="M -138 237 L -139 444 L -119 344 Z" stroke="#88c7a8" fill="#88c7a8"  /><path d="M -119 344 L -139 444 L -36 462 Z" stroke="#80be9e" fill="#80be9e"  /><path d="M -97 43 L -130 8 L -111 164 Z" stroke="#d8f0f2" fill="#d8f0f2"  /><path d="M -63 -72 L -130 8 L -51 -32 Z" stroke="#edf8fb" fill="#edf8fb"  /><path d="M 189 -104 L -103 -97 L 62 -84 Z" stroke="#e5f5f8" fill="#e5f5f8"  /><path d="M -63 -72 L -103 -97 L -130 8 Z" stroke="#edf8fb" fill="#edf8fb"  /><path d="M 310 -114 L -103 -97 L 189 -104 Z" stroke="#d7f0f2" fill="#d7f0f2"  /></svg>