<svg xmlns="http://www.w3.org/2000/svg" width="900" height="500"><path d="M 389 211 L 352 225 L 416 294 Z" stroke="#55b990" fill="#55b990"  /><path d="M 352 225 L 322 302 L 416 294 Z" stroke="#50b68a" fill="#50b68a"  /><path d="M 322 302 L 322 342 L 416 294 Z" stroke="#49b181" fill="#49b181"  /><path d="M 322 342 L 419 359 L 416 294 Z" stroke="#41ac79" fill="#41ac79"  /><path d="M 277 147 L 280 221 L 352 225 Z" stroke="#73c7af" fill="#73c7af"  /><path d="M 352 225 L 280 221 L 322 302 Z" stroke="#61be9a" fill="#61be9a"  /><path d="M 322 302 L 277 342 L 322 342 Z" stroke="#51b387" fill="#51b387"  /><path d="M 499 343 L 503 273 L 416 294 Z" stroke="#36a86b" fill="#36a86b"  /><path d="M 416 294 L 503 273 L 389 211 Z" stroke="#49b281" fill="#49b281"  /><path d="M 514 204 L 440 140 L 389 211 Z" stroke="#5ebd98" fill="#5ebd98"  /><path d="M 389 211 L 359 110 L 352 225 Z" stroke="#6cc4a8" fill="#6cc4a8"  /><path d="M 253 297 L 277 342 L 322 302 Z" stroke="#58b78d" fill="#58b78d"  /><path d="M 322 342 L 317 416 L 419 359 Z" stroke="#43a97a" fill="#43a97a"  /><path d="M 280 221 L 253 297 L 322 302 Z" stroke="#61bd98" fill="#61bd98"  /><path d="M 503 273 L 514 204 L 389 211 Z" stroke="#4cb485" fill="#4cb485"  /><path d="M 419 359 L 499 343 L 416 294 Z" stroke="#38a66d" fill="#38a66d"  /><path d="M 503 273 L 534 262 L 514 204 Z" stroke="#3fad76" fill="#3fad76"  /><path d="M 562 343 L 534 262 L 503 273 Z" stroke="#2fa463" fill="#2fa463"  /><path d="M 440 140 L 359 110 L 389 211 Z" stroke="#72c6ab" fill="#72c6ab"  /><path d="M 359 110 L 277 147 L 352 225 Z" stroke="#7bcbb5" fill="#7bcbb5"  /><path d="M 280 221 L 186 195 L 253 297 Z" stroke="#74c7ac" fill="#74c7ac"  /><path d="M 514 204 L 485 133 L 440 140 Z" stroke="#62be9a" fill="#62be9a"  /><path d="M 437 41 L 335 72 L 359 110 Z" stroke="#91d3c3" fill="#91d3c3"  /><path d="M 534 262 L 545 193 L 514 204 Z" stroke="#45b07c" fill="#45b07c"  /><path d="M 514 204 L 545 193 L 485 133 Z" stroke="#56b88e" fill="#56b88e"  /><path d="M 277 342 L 317 416 L 322 342 Z" stroke="#4dae82" fill="#4dae82"  /><path d="M 419 359 L 419 443 L 499 343 Z" stroke="#32a067" fill="#32a067"  /><path d="M 317 416 L 419 443 L 419 359 Z" stroke="#39a26f" fill="#39a26f"  /><path d="M 437 41 L 359 110 L 440 140 Z" stroke="#85ceb9" fill="#85ceb9"  /><path d="M 359 110 L 335 72 L 277 147 Z" stroke="#90d4c6" fill="#90d4c6"  /><path d="M 499 343 L 562 343 L 503 273 Z" stroke="#2da160" fill="#2da160"  /><path d="M 534 262 L 641 213 L 545 193 Z" stroke="#40ac77" fill="#40ac77"  /><path d="M 566 416 L 562 343 L 499 343 Z" stroke="#249956" fill="#249956"  /><path d="M 191 157 L 186 195 L 277 147 Z" stroke="#91d4c7" fill="#91d4c7"  /><path d="M 277 147 L 186 195 L 280 221 Z" stroke="#82cebb" fill="#82cebb"  /><path d="M 253 297 L 209 389 L 277 342 Z" stroke="#5cb690" fill="#5cb690"  /><path d="M 277 342 L 239 422 L 317 416 Z" stroke="#50ad84" fill="#50ad84"  /><path d="M 186 195 L 177 293 L 253 297 Z" stroke="#75c6a9" fill="#75c6a9"  /><path d="M 185 85 L 191 157 L 277 147 Z" stroke="#9fdad2" fill="#9fdad2"  /><path d="M 177 293 L 209 389 L 253 297 Z" stroke="#65bc97" fill="#65bc97"  /><path d="M 317 416 L 332 521 L 419 443 Z" stroke="#389d6e" fill="#389d6e"  /><path d="M 209 389 L 239 422 L 277 342 Z" stroke="#59b18b" fill="#59b18b"  /><path d="M 499 47 L 437 41 L 485 133 Z" stroke="#81cbb1" fill="#81cbb1"  /><path d="M 485 133 L 437 41 L 440 140 Z" stroke="#7bc9b0" fill="#7bc9b0"  /><path d="M 641 213 L 571 134 L 545 193 Z" stroke="#4eb284" fill="#4eb284"  /><path d="M 545 193 L 571 134 L 485 133 Z" stroke="#5cba91" fill="#5cba91"  /><path d="M 419 443 L 513 450 L 499 343 Z" stroke="#2a995d" fill="#2a995d"  /><path d="M 571 134 L 499 47 L 485 133 Z" stroke="#71c3a3" fill="#71c3a3"  /><path d="M 513 450 L 566 416 L 499 343 Z" stroke="#239655" fill="#239655"  /><path d="M 562 343 L 633 307 L 534 262 Z" stroke="#299f5c" fill="#299f5c"  /><path d="M 335 72 L 257 43 L 277 147 Z" stroke="#9fdad1" fill="#9fdad1"  /><path d="M 329 -18 L 257 43 L 335 72 Z" stroke="#abded5" fill="#abded5"  /><path d="M 663 382 L 633 307 L 562 343 Z" stroke="#229654" fill="#229654"  /><path d="M 121 217 L 136 311 L 177 293 Z" stroke="#7cc8ac" fill="#7cc8ac"  /><path d="M 177 293 L 136 311 L 209 389 Z" stroke="#6dbe9d" fill="#6dbe9d"  /><path d="M 172 453 L 281 495 L 239 422 Z" stroke="#53a984" fill="#53a984"  /><path d="M 121 217 L 177 293 L 186 195 Z" stroke="#85ceb8" fill="#85ceb8"  /><path d="M 172 453 L 239 422 L 209 389 Z" stroke="#5cb08c" fill="#5cb08c"  /><path d="M 239 422 L 281 495 L 317 416 Z" stroke="#4aa67d" fill="#4aa67d"  /><path d="M 419 443 L 469 517 L 513 450 Z" stroke="#259257" fill="#259257"  /><path d="M 633 307 L 641 213 L 534 262 Z" stroke="#34a468" fill="#34a468"  /><path d="M 571 134 L 570 41 L 499 47 Z" stroke="#76c4a3" fill="#76c4a3"  /><path d="M 257 43 L 185 85 L 277 147 Z" stroke="#a8ded9" fill="#a8ded9"  /><path d="M 131 164 L 121 217 L 186 195 Z" stroke="#95d5c8" fill="#95d5c8"  /><path d="M 131 164 L 186 195 L 191 157 Z" stroke="#98d7cc" fill="#98d7cc"  /><path d="M 281 495 L 332 521 L 317 416 Z" stroke="#409f74" fill="#409f74"  /><path d="M 185 85 L 131 164 L 191 157 Z" stroke="#a6ddd8" fill="#a6ddd8"  /><path d="M 433 531 L 469 517 L 419 443 Z" stroke="#269159" fill="#269159"  /><path d="M 513 450 L 572 495 L 566 416 Z" stroke="#1a8d4b" fill="#1a8d4b"  /><path d="M 332 521 L 433 531 L 419 443 Z" stroke="#2e9562" fill="#2e9562"  /><path d="M 489 -13 L 401 -19 L 437 41 Z" stroke="#9bd5bf" fill="#9bd5bf"  /><path d="M 437 41 L 401 -19 L 335 72 Z" stroke="#9bd7c6" fill="#9bd7c6"  /><path d="M 401 -19 L 329 -18 L 335 72 Z" stroke="#a7dccf" fill="#a7dccf"  /><path d="M 257 43 L 193 10 L 185 85 Z" stroke="#bbe5e3" fill="#bbe5e3"  /><path d="M 643 42 L 570 41 L 571 134 Z" stroke="#74c1a0" fill="#74c1a0"  /><path d="M 499 47 L 489 -13 L 437 41 Z" stroke="#90d0b6" fill="#90d0b6"  /><path d="M 570 41 L 541 15 L 499 47 Z" stroke="#83caa9" fill="#83caa9"  /><path d="M 641 213 L 646 132 L 571 134 Z" stroke="#53b388" fill="#53b388"  /><path d="M 85 368 L 172 453 L 209 389 Z" stroke="#68b695" fill="#68b695"  /><path d="M 281 495 L 175 527 L 332 521 Z" stroke="#48a079" fill="#48a079"  /><path d="M 541 15 L 489 -13 L 499 47 Z" stroke="#8dceb1" fill="#8dceb1"  /><path d="M 469 517 L 572 495 L 513 450 Z" stroke="#1b8b4b" fill="#1b8b4b"  /><path d="M 566 416 L 663 382 L 562 343 Z" stroke="#209351" fill="#209351"  /><path d="M 728 535 L 572 495 L 469 517 Z" stroke="#138442" fill="#138442"  /><path d="M 656 452 L 663 382 L 566 416 Z" stroke="#1a8c4a" fill="#1a8c4a"  /><path d="M 720 305 L 686 195 L 641 213 Z" stroke="#35a16a" fill="#35a16a"  /><path d="M 641 213 L 686 195 L 646 132 Z" stroke="#49ad7f" fill="#49ad7f"  /><path d="M 720 305 L 641 213 L 633 307 Z" stroke="#2c9d5f" fill="#2c9d5f"  /><path d="M 314 -106 L 281 -33 L 329 -18 Z" stroke="#b4e2d8" fill="#b4e2d8"  /><path d="M 329 -18 L 281 -33 L 257 43 Z" stroke="#b8e3dc" fill="#b8e3dc"  /><path d="M 396 -98 L 329 -18 L 401 -19 Z" stroke="#a7dccd" fill="#a7dccd"  /><path d="M 281 -33 L 193 10 L 257 43 Z" stroke="#c0e7e3" fill="#c0e7e3"  /><path d="M 185 85 L 139 49 L 131 164 Z" stroke="#b7e4e4" fill="#b7e4e4"  /><path d="M 50 349 L 85 368 L 136 311 Z" stroke="#79c2a1" fill="#79c2a1"  /><path d="M 136 311 L 85 368 L 209 389 Z" stroke="#6fbd9c" fill="#6fbd9c"  /><path d="M 43 269 L 136 311 L 121 217 Z" stroke="#86ccb2" fill="#86ccb2"  /><path d="M 193 10 L 139 49 L 185 85 Z" stroke="#c3e8e9" fill="#c3e8e9"  /><path d="M 15 225 L 43 269 L 121 217 Z" stroke="#95d3bf" fill="#95d3bf"  /><path d="M 572 495 L 656 452 L 566 416 Z" stroke="#178947" fill="#178947"  /><path d="M 663 382 L 710 347 L 633 307 Z" stroke="#1f9350" fill="#1f9350"  /><path d="M 570 41 L 643 -14 L 541 15 Z" stroke="#86c8a8" fill="#86c8a8"  /><path d="M 544 -101 L 501 -110 L 489 -13 Z" stroke="#91d0b2" fill="#91d0b2"  /><path d="M 646 132 L 643 42 L 571 134 Z" stroke="#69bc9a" fill="#69bc9a"  /><path d="M 695 64 L 643 42 L 646 132 Z" stroke="#6ebb9a" fill="#6ebb9a"  /><path d="M 712 416 L 710 347 L 663 382 Z" stroke="#1a8c4a" fill="#1a8c4a"  /><path d="M 710 347 L 720 305 L 633 307 Z" stroke="#219552" fill="#219552"  /><path d="M 686 195 L 718 150 L 646 132 Z" stroke="#50ae84" fill="#50ae84"  /><path d="M 125 492 L 175 527 L 172 453 Z" stroke="#5eaa8a" fill="#5eaa8a"  /><path d="M 172 453 L 175 527 L 281 495 Z" stroke="#54a683" fill="#54a683"  /><path d="M 332 521 L 175 527 L 433 531 Z" stroke="#3d9c70" fill="#3d9c70"  /><path d="M 85 368 L 85 421 L 172 453 Z" stroke="#6db797" fill="#6db797"  /><path d="M 15 225 L 121 217 L 14 156 Z" stroke="#a2dacc" fill="#a2dacc"  /><path d="M 85 368 L 59 433 L 85 421 Z" stroke="#74ba9a" fill="#74ba9a"  /><path d="M 43 269 L 50 349 L 136 311 Z" stroke="#7fc7a6" fill="#7fc7a6"  /><path d="M 763 240 L 718 150 L 686 195 Z" stroke="#40a576" fill="#40a576"  /><path d="M 85 421 L 125 492 L 172 453 Z" stroke="#67b190" fill="#67b190"  /><path d="M 572 495 L 659 485 L 656 452 Z" stroke="#138442" fill="#138442"  /><path d="M 656 452 L 712 416 L 663 382 Z" stroke="#178846" fill="#178846"  /><path d="M 728 535 L 659 485 L 572 495 Z" stroke="#0f7f3d" fill="#0f7f3d"  /><path d="M 501 -110 L 396 -98 L 489 -13 Z" stroke="#99d4bc" fill="#99d4bc"  /><path d="M 489 -13 L 396 -98 L 401 -19 Z" stroke="#9ed7c2" fill="#9ed7c2"  /><path d="M 199 -94 L 138 -6 L 193 10 Z" stroke="#d0edef" fill="#d0edef"  /><path d="M 193 10 L 138 -6 L 139 49 Z" stroke="#ceecee" fill="#ceecee"  /><path d="M 139 49 L 63 89 L 131 164 Z" stroke="#bde6e7" fill="#bde6e7"  /><path d="M 199 -94 L 193 10 L 281 -33 Z" stroke="#c6e9e7" fill="#c6e9e7"  /><path d="M 778 273 L 763 240 L 720 305 Z" stroke="#279759" fill="#279759"  /><path d="M 659 485 L 712 416 L 656 452 Z" stroke="#138442" fill="#138442"  /><path d="M 138 -6 L 63 89 L 139 49 Z" stroke="#cdecee" fill="#cdecee"  /><path d="M 718 150 L 695 64 L 646 132 Z" stroke="#60b591" fill="#60b591"  /><path d="M 643 42 L 643 -14 L 570 41 Z" stroke="#81c5a5" fill="#81c5a5"  /><path d="M 50 349 L 59 433 L 85 368 Z" stroke="#79be9e" fill="#79be9e"  /><path d="M 85 421 L 61 486 L 125 492 Z" stroke="#6bb192" fill="#6bb192"  /><path d="M 396 -98 L 314 -106 L 329 -18 Z" stroke="#acded2" fill="#acded2"  /><path d="M 14 156 L 121 217 L 131 164 Z" stroke="#a3dbd0" fill="#a3dbd0"  /><path d="M 43 269 L -33 288 L 50 349 Z" stroke="#89ccab" fill="#89ccab"  /><path d="M 50 349 L -41 383 L 59 433 Z" stroke="#7fc0a0" fill="#7fc0a0"  /><path d="M 716 12 L 643 -14 L 643 42 Z" stroke="#81c2a2" fill="#81c2a2"  /><path d="M 720 305 L 763 240 L 686 195 Z" stroke="#309d64" fill="#309d64"  /><path d="M 762 35 L 716 12 L 695 64 Z" stroke="#76bb9b" fill="#76bb9b"  /><path d="M 778 273 L 720 305 L 807 343 Z" stroke="#1d904e" fill="#1d904e"  /><path d="M 63 89 L 14 156 L 131 164 Z" stroke="#b6e3de" fill="#b6e3de"  /><path d="M 544 -101 L 489 -13 L 541 15 Z" stroke="#8fceb0" fill="#8fceb0"  /><path d="M 396 -98 L 501 -110 L 314 -106 Z" stroke="#a2d9c7" fill="#a2d9c7"  /><path d="M 636 -62 L 544 -101 L 541 15 Z" stroke="#8acbab" fill="#8acbab"  /><path d="M 807 343 L 720 305 L 710 347 Z" stroke="#1c8f4c" fill="#1c8f4c"  /><path d="M 762 35 L 695 64 L 718 150 Z" stroke="#69b696" fill="#69b696"  /><path d="M 501 -110 L 255 -115 L 314 -106 Z" stroke="#aaddd0" fill="#aaddd0"  /><path d="M 314 -106 L 255 -115 L 281 -33 Z" stroke="#bae4dd" fill="#bae4dd"  /><path d="M -31 439 L 61 486 L 59 433 Z" stroke="#77b797" fill="#77b797"  /><path d="M 59 433 L 61 486 L 85 421 Z" stroke="#71b596" fill="#71b596"  /><path d="M 125 492 L 61 486 L 175 527 Z" stroke="#63ab8b" fill="#63ab8b"  /><path d="M 138 -6 L 15 -32 L 63 89 Z" stroke="#dcf2f4" fill="#dcf2f4"  /><path d="M 255 -115 L 199 -94 L 281 -33 Z" stroke="#c2e7e3" fill="#c2e7e3"  /><path d="M 707 -73 L 636 -62 L 643 -14 Z" stroke="#85c4a4" fill="#85c4a4"  /><path d="M 643 -14 L 636 -62 L 541 15 Z" stroke="#88c8a8" fill="#88c8a8"  /><path d="M -38 162 L -24 239 L 15 225 Z" stroke="#a7dccd" fill="#a7dccd"  /><path d="M 15 225 L -24 239 L 43 269 Z" stroke="#9bd5bf" fill="#9bd5bf"  /><path d="M 803 157 L 718 150 L 763 240 Z" stroke="#42a577" fill="#42a577"  /><path d="M 695 64 L 716 12 L 643 42 Z" stroke="#78be9e" fill="#78be9e"  /><path d="M -24 239 L -33 288 L 43 269 Z" stroke="#97d3b9" fill="#97d3b9"  /><path d="M 23 -86 L 126 -77 L -20 -115 Z" stroke="#e6f5f8" fill="#e6f5f8"  /><path d="M 199 -94 L 126 -77 L 138 -6 Z" stroke="#d4eff0" fill="#d4eff0"  /><path d="M -47 58 L -38 162 L 14 156 Z" stroke="#c6e9e7" fill="#c6e9e7"  /><path d="M 848 155 L 803 157 L 878 223 Z" stroke="#3f9f73" fill="#3f9f73"  /><path d="M 712 416 L 807 343 L 710 347 Z" stroke="#188a48" fill="#188a48"  /><path d="M 878 223 L 803 157 L 763 240 Z" stroke="#369d6c" fill="#369d6c"  /><path d="M 812 434 L 807 343 L 712 416 Z" stroke="#138442" fill="#138442"  /><path d="M 14 156 L -38 162 L 15 225 Z" stroke="#b1e0d5" fill="#b1e0d5"  /><path d="M -24 239 L -85 264 L -33 288 Z" stroke="#97d3ba" fill="#97d3ba"  /><path d="M -47 58 L 14 156 L 63 89 Z" stroke="#cdeced" fill="#cdeced"  /><path d="M 803 157 L 762 35 L 718 150 Z" stroke="#5caf8d" fill="#5caf8d"  /><path d="M 716 12 L 707 -73 L 643 -14 Z" stroke="#83c2a2" fill="#83c2a2"  /><path d="M 433 531 L 728 535 L 469 517 Z" stroke="#168745" fill="#168745"  /><path d="M 659 485 L 767 503 L 712 416 Z" stroke="#0f7f3d" fill="#0f7f3d"  /><path d="M -125 364 L -41 383 L -33 288 Z" stroke="#88c7a7" fill="#88c7a7"  /><path d="M -33 288 L -41 383 L 50 349 Z" stroke="#88c8a8" fill="#88c8a8"  /><path d="M 728 535 L 767 503 L 659 485 Z" stroke="#0b7a39" fill="#0b7a39"  /><path d="M -41 383 L -31 439 L 59 433 Z" stroke="#7fbd9e" fill="#7fbd9e"  /><path d="M 767 503 L 812 434 L 712 416 Z" stroke="#0e7e3c" fill="#0e7e3c"  /><path d="M 878 223 L 763 240 L 778 273 Z" stroke="#2c975f" fill="#2c975f"  /><path d="M 787 -30 L 707 -73 L 716 12 Z" stroke="#80bf9f" fill="#80bf9f"  /><path d="M 636 -62 L 707 -73 L 544 -101 Z" stroke="#87c6a7" fill="#87c6a7"  /><path d="M 544 -101 L 852 -94 L 501 -110 Z" stroke="#87c6a6" fill="#87c6a6"  /><path d="M 126 -77 L 15 -32 L 138 -6 Z" stroke="#def2f5" fill="#def2f5"  /><path d="M -126 191 L -85 264 L -24 239 Z" stroke="#a0d8c5" fill="#a0d8c5"  /><path d="M -41 383 L -93 421 L -31 439 Z" stroke="#80be9e" fill="#80be9e"  /><path d="M -126 191 L -24 239 L -38 162 Z" stroke="#abddd0" fill="#abddd0"  /><path d="M 866 296 L 778 273 L 807 343 Z" stroke="#1b8d4b" fill="#1b8d4b"  /><path d="M 803 157 L 874 73 L 762 35 Z" stroke="#62af8f" fill="#62af8f"  /><path d="M 762 35 L 787 -30 L 716 12 Z" stroke="#7ebd9d" fill="#7ebd9d"  /><path d="M 15 -32 L -47 58 L 63 89 Z" stroke="#e0f3f5" fill="#e0f3f5"  /><path d="M 871 350 L 866 296 L 807 343 Z" stroke="#168745" fill="#168745"  /><path d="M 866 296 L 878 223 L 778 273 Z" stroke="#249256" fill="#249256"  /><path d="M 874 73 L 803 157 L 848 155 Z" stroke="#52a782" fill="#52a782"  /><path d="M 874 73 L 787 -30 L 762 35 Z" stroke="#74b697" fill="#74b697"  /><path d="M 812 434 L 871 350 L 807 343 Z" stroke="#128341" fill="#128341"  /><path d="M 866 296 L 930 234 L 878 223 Z" stroke="#259057" fill="#259057"  /><path d="M 881 459 L 871 350 L 812 434 Z" stroke="#0c7c3a" fill="#0c7c3a"  /><path d="M 126 -77 L 23 -86 L 15 -32 Z" stroke="#e4f5f7" fill="#e4f5f7"  /><path d="M 15 -32 L -28 -24 L -47 58 Z" stroke="#edf8fb" fill="#edf8fb"  /><path d="M -20 -115 L 126 -77 L 199 -94 Z" stroke="#dcf2f4" fill="#dcf2f4"  /><path d="M 23 -86 L -28 -24 L 15 -32 Z" stroke="#ecf8fb" fill="#ecf8fb"  /><path d="M -125 364 L -93 421 L -41 383 Z" stroke="#83c1a2" fill="#83c1a2"  /><path d="M -31 439 L -62 511 L 61 486 Z" stroke="#79b596" fill="#79b596"  /><path d="M -125 -3 L -90 73 L -47 58 Z" stroke="#e0f3f6" fill="#e0f3f6"  /><path d="M -47 58 L -90 73 L -38 162 Z" stroke="#d0edef" fill="#d0edef"  /><path d="M -85 264 L -125 364 L -33 288 Z" stroke="#8cccac" fill="#8cccac"  /><path d="M -95 505 L -62 511 L -31 439 Z" stroke="#78b495" fill="#78b495"  /><path d="M 61 486 L -62 511 L 175 527 Z" stroke="#6daf8f" fill="#6daf8f"  /><path d="M -129 127 L -126 191 L -38 162 Z" stroke="#b9e3dc" fill="#b9e3dc"  /><path d="M -126 191 L -125 364 L -85 264 Z" stroke="#94d1b6" fill="#94d1b6"  /><path d="M -93 421 L -95 505 L -31 439 Z" stroke="#7bb899" fill="#7bb899"  /><path d="M 913 150 L 874 73 L 848 155 Z" stroke="#50a580" fill="#50a580"  /><path d="M 728 535 L 848 518 L 767 503 Z" stroke="#077634" fill="#077634"  /><path d="M 767 503 L 848 518 L 812 434 Z" stroke="#077634" fill="#077634"  /><path d="M -90 73 L -129 127 L -38 162 Z" stroke="#c8eae8" fill="#c8eae8"  /><path d="M -126 191 L -129 127 L -125 364 Z" stroke="#a2d9c6" fill="#a2d9c6"  /><path d="M -125 -3 L -129 127 L -90 73 Z" stroke="#daf1f3" fill="#daf1f3"  /><path d="M 848 518 L 881 459 L 812 434 Z" stroke="#077534" fill="#077534"  /><path d="M 930 234 L 913 150 L 878 223 Z" stroke="#329767" fill="#329767"  /><path d="M 930 234 L 866 296 L 962 313 Z" stroke="#1c8b4c" fill="#1c8b4c"  /><path d="M 878 223 L 913 150 L 848 155 Z" stroke="#3d9d71" fill="#3d9d71"  /><path d="M -125 364 L -95 505 L -93 421 Z" stroke="#7ebc9c" fill="#7ebc9c"  /><path d="M 852 -94 L 806 -88 L 787 -30 Z" stroke="#7cb99a" fill="#7cb99a"  /><path d="M 787 -30 L 806 -88 L 707 -73 Z" stroke="#7fbc9d" fill="#7fbc9d"  /><path d="M 707 -73 L 806 -88 L 544 -101 Z" stroke="#84c2a3" fill="#84c2a3"  /><path d="M 888 -28 L 787 -30 L 874 73 Z" stroke="#78b696" fill="#78b696"  /><path d="M 954 341 L 866 296 L 871 350 Z" stroke="#138442" fill="#138442"  /><path d="M 23 -86 L -20 -115 L -28 -24 Z" stroke="#edf8fb" fill="#edf8fb"  /><path d="M -28 -24 L -125 -3 L -47 58 Z" stroke="#eaf7fa" fill="#eaf7fa"  /><path d="M 255 -115 L -20 -115 L 199 -94 Z" stroke="#d5eff1" fill="#d5eff1"  /><path d="M -111 -76 L -125 -3 L -28 -24 Z" stroke="#edf8fb" fill="#edf8fb"  /><path d="M 946 421 L 871 350 L 881 459 Z" stroke="#0a7938" fill="#0a7938"  /><path d="M 946 421 L 954 341 L 871 350 Z" stroke="#0e7e3c" fill="#0e7e3c"  /><path d="M 960 58 L 874 73 L 913 150 Z" stroke="#5ba888" fill="#5ba888"  /><path d="M 960 58 L 888 -28 L 874 73 Z" stroke="#6caf8f" fill="#6caf8f"  /><path d="M 960 58 L 913 150 L 930 234 Z" stroke="#47a078" fill="#47a078"  /><path d="M 954 341 L 962 313 L 866 296 Z" stroke="#148543" fill="#148543"  /><path d="M 951 510 L 946 421 L 881 459 Z" stroke="#047231" fill="#047231"  /><path d="M 954 341 L 946 421 L 962 313 Z" stroke="#10803e" fill="#10803e"  /><path d="M 888 -28 L 852 -94 L 787 -30 Z" stroke="#7ab798" fill="#7ab798"  /><path d="M 806 -88 L 852 -94 L 544 -101 Z" stroke="#81bf9f" fill="#81bf9f"  /><path d="M -20 -115 L -111 -76 L -28 -24 Z" stroke="#edf8fb" fill="#edf8fb"  /><path d="M 962 313 L 960 58 L 930 234 Z" stroke="#339767" fill="#339767"  /><path d="M 888 -28 L 948 -66 L 852 -94 Z" stroke="#77b394" fill="#77b394"  /><path d="M 946 421 L 951 510 L 962 313 Z" stroke="#097837" fill="#097837"  /><path d="M 848 518 L 951 510 L 881 459 Z" stroke="#016e2d" fill="#016e2d"  /><path d="M 728 535 L 951 510 L 848 518 Z" stroke="#047130" fill="#047130"  /><path d="M 962 313 L 965 -30 L 960 58 Z" stroke="#54a583" fill="#54a583"  /><path d="M 960 58 L 965 -30 L 888 -28 Z" stroke="#77b393" fill="#77b393"  /><path d="M 965 -30 L 948 -66 L 888 -28 Z" stroke="#77b393" fill="#77b393"  /></svg>