<svg xmlns="http://www.w3.org/2000/svg" width="900" height="500"><path d="M 423 234 L 474 307 L 495 236 Z" stroke="#8a71b4" fill="#8a71b4"  /><path d="M 423 234 L 410 309 L 474 307 Z" stroke="#896eb3" fill="#896eb3"  /><path d="M 474 307 L 536 264 L 495 236 Z" stroke="#8967af" fill="#8967af"  /><path d="M 536 264 L 552 192 L 495 236 Z" stroke="#8a6eb3" fill="#8a6eb3"  /><path d="M 495 236 L 466 125 L 423 234 Z" stroke="#8b84be" fill="#8b84be"  /><path d="M 423 234 L 333 264 L 410 309 Z" stroke="#8a7bb9" fill="#8a7bb9"  /><path d="M 390 374 L 514 379 L 474 307 Z" stroke="#885ba8" fill="#885ba8"  /><path d="M 474 307 L 560 351 L 536 264 Z" stroke="#8858a8" fill="#8858a8"  /><path d="M 536 264 L 629 227 L 552 192 Z" stroke="#896ab0" fill="#896ab0"  /><path d="M 390 374 L 474 307 L 410 309 Z" stroke="#8965ae" fill="#8965ae"  /><path d="M 310 336 L 390 374 L 410 309 Z" stroke="#896db1" fill="#896db1"  /><path d="M 514 379 L 560 351 L 474 307 Z" stroke="#8752a4" fill="#8752a4"  /><path d="M 552 192 L 466 125 L 495 236 Z" stroke="#8d81bc" fill="#8d81bc"  /><path d="M 423 234 L 311 198 L 333 264 Z" stroke="#8c8cc1" fill="#8c8cc1"  /><path d="M 629 227 L 559 153 L 552 192 Z" stroke="#8b75b5" fill="#8b75b5"  /><path d="M 552 192 L 559 153 L 466 125 Z" stroke="#9384be" fill="#9384be"  /><path d="M 466 125 L 419 117 L 423 234 Z" stroke="#9394c5" fill="#9394c5"  /><path d="M 419 117 L 344 160 L 423 234 Z" stroke="#9198c7" fill="#9198c7"  /><path d="M 344 160 L 311 198 L 423 234 Z" stroke="#8d97c6" fill="#8d97c6"  /><path d="M 560 351 L 616 309 L 536 264 Z" stroke="#8852a4" fill="#8852a4"  /><path d="M 277 276 L 310 336 L 333 264 Z" stroke="#9081bc" fill="#9081bc"  /><path d="M 333 264 L 310 336 L 410 309 Z" stroke="#8b77b7" fill="#8b77b7"  /><path d="M 616 309 L 629 227 L 536 264 Z" stroke="#885ba9" fill="#885ba9"  /><path d="M 311 198 L 280 237 L 333 264 Z" stroke="#9193c5" fill="#9193c5"  /><path d="M 280 237 L 277 276 L 333 264 Z" stroke="#928dc2" fill="#928dc2"  /><path d="M 390 374 L 490 447 L 514 379 Z" stroke="#8752a3" fill="#8752a3"  /><path d="M 514 379 L 566 424 L 560 351 Z" stroke="#86469e" fill="#86469e"  /><path d="M 560 351 L 653 359 L 616 309 Z" stroke="#87489f" fill="#87489f"  /><path d="M 397 465 L 490 447 L 390 374 Z" stroke="#8753a3" fill="#8753a3"  /><path d="M 559 153 L 473 73 L 466 125 Z" stroke="#9b94c6" fill="#9b94c6"  /><path d="M 466 125 L 473 73 L 419 117 Z" stroke="#9da0cc" fill="#9da0cc"  /><path d="M 419 117 L 364 79 L 344 160 Z" stroke="#9caad0" fill="#9caad0"  /><path d="M 490 447 L 566 424 L 514 379 Z" stroke="#86449c" fill="#86449c"  /><path d="M 419 43 L 364 79 L 419 117 Z" stroke="#a5afd3" fill="#a5afd3"  /><path d="M 344 160 L 251 151 L 311 198 Z" stroke="#98a7cf" fill="#98a7cf"  /><path d="M 311 198 L 251 151 L 280 237 Z" stroke="#96a3cd" fill="#96a3cd"  /><path d="M 311 432 L 397 465 L 390 374 Z" stroke="#885fa9" fill="#885fa9"  /><path d="M 625 419 L 653 359 L 560 351 Z" stroke="#86419a" fill="#86419a"  /><path d="M 616 309 L 698 226 L 629 227 Z" stroke="#885aa8" fill="#885aa8"  /><path d="M 252 421 L 311 432 L 310 336 Z" stroke="#906fb2" fill="#906fb2"  /><path d="M 310 336 L 311 432 L 390 374 Z" stroke="#8b6bb0" fill="#8b6bb0"  /><path d="M 473 73 L 419 43 L 419 117 Z" stroke="#a5a9d1" fill="#a5a9d1"  /><path d="M 397 465 L 470 489 L 490 447 Z" stroke="#86489d" fill="#86489d"  /><path d="M 490 447 L 551 527 L 566 424 Z" stroke="#853996" fill="#853996"  /><path d="M 629 227 L 638 127 L 559 153 Z" stroke="#8f78b7" fill="#8f78b7"  /><path d="M 559 153 L 583 67 L 473 73 Z" stroke="#9e92c5" fill="#9e92c5"  /><path d="M 473 73 L 434 -19 L 419 43 Z" stroke="#b2b1d6" fill="#b2b1d6"  /><path d="M 687 149 L 638 127 L 629 227 Z" stroke="#8f74b5" fill="#8f74b5"  /><path d="M 635 536 L 625 419 L 566 424 Z" stroke="#853392" fill="#853392"  /><path d="M 566 424 L 625 419 L 560 351 Z" stroke="#86409a" fill="#86409a"  /><path d="M 638 127 L 583 67 L 559 153 Z" stroke="#9a88c0" fill="#9a88c0"  /><path d="M 251 85 L 344 160 L 364 79 Z" stroke="#a2b5d7" fill="#a2b5d7"  /><path d="M 251 85 L 251 151 L 344 160 Z" stroke="#a2b5d6" fill="#a2b5d6"  /><path d="M 196 232 L 204 286 L 277 276 Z" stroke="#9996c7" fill="#9996c7"  /><path d="M 736 301 L 698 226 L 616 309 Z" stroke="#874fa2" fill="#874fa2"  /><path d="M 277 276 L 236 389 L 310 336 Z" stroke="#937dba" fill="#937dba"  /><path d="M 204 286 L 236 389 L 277 276 Z" stroke="#9785be" fill="#9785be"  /><path d="M 196 232 L 277 276 L 280 237 Z" stroke="#9797c7" fill="#9797c7"  /><path d="M 698 226 L 687 149 L 629 227 Z" stroke="#8969af" fill="#8969af"  /><path d="M 638 127 L 612 49 L 583 67 Z" stroke="#a28fc3" fill="#a28fc3"  /><path d="M 236 389 L 252 421 L 310 336 Z" stroke="#9376b5" fill="#9376b5"  /><path d="M 350 540 L 394 530 L 397 465 Z" stroke="#864f9f" fill="#864f9f"  /><path d="M 397 465 L 394 530 L 470 489 Z" stroke="#86499c" fill="#86499c"  /><path d="M 251 151 L 196 232 L 280 237 Z" stroke="#99a6ce" fill="#99a6ce"  /><path d="M 722 84 L 612 49 L 638 127 Z" stroke="#a089c0" fill="#a089c0"  /><path d="M 498 -37 L 434 -19 L 473 73 Z" stroke="#bab3d6" fill="#bab3d6"  /><path d="M 270 -9 L 251 85 L 364 79 Z" stroke="#b5c6e0" fill="#b5c6e0"  /><path d="M 251 151 L 204 152 L 196 232 Z" stroke="#a0b2d5" fill="#a0b2d5"  /><path d="M 350 540 L 397 465 L 311 432 Z" stroke="#8857a4" fill="#8857a4"  /><path d="M 470 489 L 551 527 L 490 447 Z" stroke="#853b96" fill="#853b96"  /><path d="M 215 79 L 204 152 L 251 151 Z" stroke="#a9bfdc" fill="#a9bfdc"  /><path d="M 394 530 L 551 527 L 470 489 Z" stroke="#853f97" fill="#853f97"  /><path d="M 635 536 L 690 420 L 625 419 Z" stroke="#842f8f" fill="#842f8f"  /><path d="M 625 419 L 690 420 L 653 359 Z" stroke="#853995" fill="#853995"  /><path d="M 653 359 L 736 301 L 616 309 Z" stroke="#86459d" fill="#86459d"  /><path d="M 738 344 L 736 301 L 653 359 Z" stroke="#863f99" fill="#863f99"  /><path d="M 782 162 L 722 84 L 687 149 Z" stroke="#9576b5" fill="#9576b5"  /><path d="M 498 -37 L 473 73 L 536 -35 Z" stroke="#bbaed4" fill="#bbaed4"  /><path d="M 419 43 L 324 -17 L 364 79 Z" stroke="#b2bedc" fill="#b2bedc"  /><path d="M 132 270 L 182 336 L 204 286 Z" stroke="#9f93c6" fill="#9f93c6"  /><path d="M 204 286 L 182 336 L 236 389 Z" stroke="#9a87bf" fill="#9a87bf"  /><path d="M 236 389 L 164 457 L 252 421 Z" stroke="#9776b5" fill="#9776b5"  /><path d="M 132 270 L 204 286 L 196 232 Z" stroke="#9f9ecb" fill="#9f9ecb"  /><path d="M 690 420 L 738 344 L 653 359 Z" stroke="#853a96" fill="#853a96"  /><path d="M 259 530 L 350 540 L 311 432 Z" stroke="#8c5ba5" fill="#8c5ba5"  /><path d="M 394 530 L 350 540 L 551 527 Z" stroke="#86469b" fill="#86469b"  /><path d="M 536 -35 L 473 73 L 583 67 Z" stroke="#b0a1ce" fill="#b0a1ce"  /><path d="M 270 -9 L 215 79 L 251 85 Z" stroke="#bacde4" fill="#bacde4"  /><path d="M 251 85 L 215 79 L 251 151 Z" stroke="#acc3de" fill="#acc3de"  /><path d="M 612 49 L 536 -35 L 583 67 Z" stroke="#b29ecc" fill="#b29ecc"  /><path d="M 410 -67 L 324 -17 L 434 -19 Z" stroke="#bcc2de" fill="#bcc2de"  /><path d="M 434 -19 L 324 -17 L 419 43 Z" stroke="#bbc1dd" fill="#bbc1dd"  /><path d="M 687 149 L 722 84 L 638 127 Z" stroke="#987eba" fill="#987eba"  /><path d="M 612 49 L 660 10 L 536 -35 Z" stroke="#b89fcc" fill="#b89fcc"  /><path d="M 782 162 L 687 149 L 698 226 Z" stroke="#8c6aaf" fill="#8c6aaf"  /><path d="M 722 84 L 660 10 L 612 49 Z" stroke="#ab90c4" fill="#ab90c4"  /><path d="M 551 527 L 635 536 L 566 424 Z" stroke="#842f8f" fill="#842f8f"  /><path d="M 690 420 L 766 387 L 738 344 Z" stroke="#853493" fill="#853493"  /><path d="M 350 540 L 635 536 L 551 527 Z" stroke="#853794" fill="#853794"  /><path d="M 132 141 L 196 232 L 204 152 Z" stroke="#a5b9d8" fill="#a5b9d8"  /><path d="M 132 141 L 133 239 L 196 232 Z" stroke="#a4b3d6" fill="#a4b3d6"  /><path d="M 133 239 L 132 270 L 196 232 Z" stroke="#a3a6cf" fill="#a3a6cf"  /><path d="M 324 -17 L 270 -9 L 364 79 Z" stroke="#bcc9e2" fill="#bcc9e2"  /><path d="M 835 311 L 814 262 L 736 301 Z" stroke="#864099" fill="#864099"  /><path d="M 801 228 L 782 162 L 698 226 Z" stroke="#885fa9" fill="#885fa9"  /><path d="M 788 440 L 766 387 L 690 420 Z" stroke="#842d8e" fill="#842d8e"  /><path d="M 177 510 L 259 530 L 252 421 Z" stroke="#9569ad" fill="#9569ad"  /><path d="M 252 421 L 259 530 L 311 432 Z" stroke="#9067ac" fill="#9067ac"  /><path d="M 164 457 L 236 389 L 118 386 Z" stroke="#9d7fba" fill="#9d7fba"  /><path d="M 498 -37 L 410 -67 L 434 -19 Z" stroke="#bcb7d9" fill="#bcb7d9"  /><path d="M 247 -81 L 194 -32 L 270 -9 Z" stroke="#cadaea" fill="#cadaea"  /><path d="M 466 -108 L 410 -67 L 498 -37 Z" stroke="#bbb6d8" fill="#bbb6d8"  /><path d="M 801 228 L 698 226 L 736 301 Z" stroke="#8751a2" fill="#8751a2"  /><path d="M 814 262 L 801 228 L 736 301 Z" stroke="#864a9e" fill="#864a9e"  /><path d="M 215 79 L 132 141 L 204 152 Z" stroke="#aec6df" fill="#aec6df"  /><path d="M 27 374 L 118 386 L 14 301 Z" stroke="#b197c8" fill="#b197c8"  /><path d="M 139 62 L 132 141 L 215 79 Z" stroke="#b8d0e5" fill="#b8d0e5"  /><path d="M 118 386 L 236 389 L 182 336 Z" stroke="#9c85be" fill="#9c85be"  /><path d="M 835 311 L 736 301 L 738 344 Z" stroke="#853c97" fill="#853c97"  /><path d="M 801 228 L 848 214 L 782 162 Z" stroke="#875ba6" fill="#875ba6"  /><path d="M 42 187 L 132 270 L 133 239 Z" stroke="#abb1d5" fill="#abb1d5"  /><path d="M 132 270 L 118 386 L 182 336 Z" stroke="#a390c4" fill="#a390c4"  /><path d="M 660 10 L 563 -84 L 536 -35 Z" stroke="#baa2ce" fill="#baa2ce"  /><path d="M 536 -35 L 563 -84 L 498 -37 Z" stroke="#bba8d2" fill="#bba8d2"  /><path d="M 563 -84 L 466 -108 L 498 -37 Z" stroke="#bbadd4" fill="#bbadd4"  /><path d="M 247 -81 L 270 -9 L 324 -17 Z" stroke="#c5d3e7" fill="#c5d3e7"  /><path d="M 118 500 L 177 510 L 164 457 Z" stroke="#9f73b2" fill="#9f73b2"  /><path d="M 164 457 L 177 510 L 252 421 Z" stroke="#9972b2" fill="#9972b2"  /><path d="M 730 540 L 788 440 L 690 420 Z" stroke="#832589" fill="#832589"  /><path d="M 766 387 L 835 311 L 738 344 Z" stroke="#853694" fill="#853694"  /><path d="M 194 -32 L 139 62 L 215 79 Z" stroke="#c5daea" fill="#c5daea"  /><path d="M 877 379 L 835 311 L 766 387 Z" stroke="#842f90" fill="#842f90"  /><path d="M 814 262 L 848 214 L 801 228 Z" stroke="#874fa0" fill="#874fa0"  /><path d="M 722 84 L 735 3 L 660 10 Z" stroke="#b090c3" fill="#b090c3"  /><path d="M 660 10 L 655 -103 L 563 -84 Z" stroke="#ba9fcc" fill="#ba9fcc"  /><path d="M 797 36 L 735 3 L 722 84 Z" stroke="#ad89bf" fill="#ad89bf"  /><path d="M 797 36 L 722 84 L 841 85 Z" stroke="#a480ba" fill="#a480ba"  /><path d="M 635 536 L 730 540 L 690 420 Z" stroke="#832489" fill="#832489"  /><path d="M 350 540 L 730 540 L 635 536 Z" stroke="#842f90" fill="#842f90"  /><path d="M 835 311 L 848 214 L 814 262 Z" stroke="#86459b" fill="#86459b"  /><path d="M 247 -81 L 324 -17 L 310 -114 Z" stroke="#c4d1e6" fill="#c4d1e6"  /><path d="M 270 -9 L 194 -32 L 215 79 Z" stroke="#c7d9ea" fill="#c7d9ea"  /><path d="M 118 386 L 113 460 L 164 457 Z" stroke="#a37fba" fill="#a37fba"  /><path d="M 45 437 L 113 460 L 118 386 Z" stroke="#a985bd" fill="#a985bd"  /><path d="M 310 -114 L 324 -17 L 410 -67 Z" stroke="#bec9e1" fill="#bec9e1"  /><path d="M 466 -108 L 310 -114 L 410 -67 Z" stroke="#bcc1dd" fill="#bcc1dd"  /><path d="M 841 85 L 722 84 L 782 162 Z" stroke="#9977b5" fill="#9977b5"  /><path d="M 113 460 L 118 500 L 164 457 Z" stroke="#a279b6" fill="#a279b6"  /><path d="M 177 510 L 50 534 L 259 530 Z" stroke="#9d70b1" fill="#9d70b1"  /><path d="M 848 214 L 846 115 L 782 162 Z" stroke="#8e64ab" fill="#8e64ab"  /><path d="M 706 -111 L 660 10 L 735 3 Z" stroke="#b997c7" fill="#b997c7"  /><path d="M 706 -111 L 655 -103 L 660 10 Z" stroke="#b99ac9" fill="#b99ac9"  /><path d="M 563 -84 L 655 -103 L 466 -108 Z" stroke="#baa5d0" fill="#baa5d0"  /><path d="M 466 -108 L 706 -111 L 310 -114 Z" stroke="#bbafd5" fill="#bbafd5"  /><path d="M 846 115 L 841 85 L 782 162 Z" stroke="#9770b1" fill="#9770b1"  /><path d="M 29 132 L 42 187 L 132 141 Z" stroke="#bbcce3" fill="#bbcce3"  /><path d="M 132 141 L 42 187 L 133 239 Z" stroke="#aebedb" fill="#aebedb"  /><path d="M 113 460 L 50 534 L 118 500 Z" stroke="#a879b5" fill="#a879b5"  /><path d="M 55 68 L 132 141 L 139 62 Z" stroke="#c1d8e9" fill="#c1d8e9"  /><path d="M 788 440 L 877 379 L 766 387 Z" stroke="#84298c" fill="#84298c"  /><path d="M 938 308 L 928 207 L 848 214 Z" stroke="#86459a" fill="#86459a"  /><path d="M 848 214 L 928 207 L 846 115 Z" stroke="#8b5ba6" fill="#8b5ba6"  /><path d="M 889 446 L 877 379 L 788 440 Z" stroke="#832287" fill="#832287"  /><path d="M 730 540 L 805 536 L 788 440 Z" stroke="#821b84" fill="#821b84"  /><path d="M 14 301 L 118 386 L 132 270 Z" stroke="#ac99c9" fill="#ac99c9"  /><path d="M 42 187 L 14 301 L 132 270 Z" stroke="#b1afd4" fill="#b1afd4"  /><path d="M 842 -16 L 812 -9 L 797 36 Z" stroke="#b78bc0" fill="#b78bc0"  /><path d="M 797 36 L 812 -9 L 735 3 Z" stroke="#b58dc1" fill="#b58dc1"  /><path d="M 27 374 L 45 437 L 118 386 Z" stroke="#af8ec2" fill="#af8ec2"  /><path d="M 59 5 L 55 68 L 139 62 Z" stroke="#d2e4f0" fill="#d2e4f0"  /><path d="M -63 231 L -30 315 L 14 301 Z" stroke="#bbadd4" fill="#bbadd4"  /><path d="M 109 -24 L 139 62 L 194 -32 Z" stroke="#d5e6f1" fill="#d5e6f1"  /><path d="M 55 68 L 29 132 L 132 141 Z" stroke="#c2d6e8" fill="#c2d6e8"  /><path d="M 812 -77 L 706 -111 L 735 3 Z" stroke="#b892c4" fill="#b892c4"  /><path d="M 655 -103 L 706 -111 L 466 -108 Z" stroke="#baa0cd" fill="#baa0cd"  /><path d="M 189 -104 L 194 -32 L 247 -81 Z" stroke="#cddeed" fill="#cddeed"  /><path d="M 115 -68 L 109 -24 L 194 -32 Z" stroke="#d7e7f2" fill="#d7e7f2"  /><path d="M 310 -114 L 189 -104 L 247 -81 Z" stroke="#c9d8e9" fill="#c9d8e9"  /><path d="M 805 536 L 854 496 L 788 440 Z" stroke="#821982" fill="#821982"  /><path d="M 854 496 L 889 446 L 788 440 Z" stroke="#821c84" fill="#821c84"  /><path d="M 938 308 L 848 214 L 835 311 Z" stroke="#853c97" fill="#853c97"  /><path d="M 846 115 L 914 62 L 841 85 Z" stroke="#9e74b3" fill="#9e74b3"  /><path d="M 841 85 L 842 -16 L 797 36 Z" stroke="#ae83bc" fill="#ae83bc"  /><path d="M 938 308 L 835 311 L 877 379 Z" stroke="#842e8f" fill="#842e8f"  /><path d="M 914 62 L 842 -16 L 841 85 Z" stroke="#ab7db8" fill="#ab7db8"  /><path d="M 812 -9 L 812 -77 L 735 3 Z" stroke="#b88fc2" fill="#b88fc2"  /><path d="M 62 -84 L 59 5 L 109 -24 Z" stroke="#e1eff6" fill="#e1eff6"  /><path d="M 109 -24 L 59 5 L 139 62 Z" stroke="#d8e9f2" fill="#d8e9f2"  /><path d="M -48 86 L -33 143 L 29 132 Z" stroke="#ccddec" fill="#ccddec"  /><path d="M 189 -104 L 115 -68 L 194 -32 Z" stroke="#d2e4f0" fill="#d2e4f0"  /><path d="M 14 301 L -13 342 L 27 374 Z" stroke="#b89fcc" fill="#b89fcc"  /><path d="M 27 374 L -36 462 L 45 437 Z" stroke="#b68fc3" fill="#b68fc3"  /><path d="M -30 315 L -13 342 L 14 301 Z" stroke="#baa4cf" fill="#baa4cf"  /><path d="M 929 382 L 938 308 L 877 379 Z" stroke="#84298b" fill="#84298b"  /><path d="M 938 418 L 929 382 L 877 379 Z" stroke="#832288" fill="#832288"  /><path d="M -36 462 L 50 534 L 45 437 Z" stroke="#b485bd" fill="#b485bd"  /><path d="M 45 437 L 50 534 L 113 460 Z" stroke="#ac7fb9" fill="#ac7fb9"  /><path d="M 118 500 L 50 534 L 177 510 Z" stroke="#a476b4" fill="#a476b4"  /><path d="M 259 530 L 50 534 L 350 540 Z" stroke="#9668ac" fill="#9668ac"  /><path d="M -63 231 L 14 301 L 42 187 Z" stroke="#bcbada" fill="#bcbada"  /><path d="M -13 342 L -36 462 L 27 374 Z" stroke="#b997c7" fill="#b997c7"  /><path d="M -33 143 L 42 187 L 29 132 Z" stroke="#c3d2e6" fill="#c3d2e6"  /><path d="M 842 -16 L 812 -77 L 812 -9 Z" stroke="#b88bc0" fill="#b88bc0"  /><path d="M 961 114 L 846 115 L 928 207 Z" stroke="#9162a9" fill="#9162a9"  /><path d="M 961 114 L 914 62 L 846 115 Z" stroke="#9b6fb0" fill="#9b6fb0"  /><path d="M 842 -16 L 876 -114 L 812 -77 Z" stroke="#b889bf" fill="#b889bf"  /><path d="M 929 382 L 938 418 L 938 308 Z" stroke="#83268a" fill="#83268a"  /><path d="M 889 446 L 938 418 L 877 379 Z" stroke="#821e85" fill="#821e85"  /><path d="M 916 534 L 938 418 L 889 446 Z" stroke="#821580" fill="#821580"  /><path d="M -48 86 L 29 132 L 55 68 Z" stroke="#cfe2ef" fill="#cfe2ef"  /><path d="M -33 143 L -63 231 L 42 187 Z" stroke="#bfcbe2" fill="#bfcbe2"  /><path d="M -119 344 L -36 462 L -13 342 Z" stroke="#b998c8" fill="#b998c8"  /><path d="M 938 308 L 961 114 L 928 207 Z" stroke="#864fa0" fill="#864fa0"  /><path d="M 914 62 L 923 11 L 842 -16 Z" stroke="#b280ba" fill="#b280ba"  /><path d="M 938 418 L 961 114 L 938 308 Z" stroke="#853995" fill="#853995"  /><path d="M 115 -68 L 62 -84 L 109 -24 Z" stroke="#deedf5" fill="#deedf5"  /><path d="M 59 5 L -48 86 L 55 68 Z" stroke="#daeaf3" fill="#daeaf3"  /><path d="M 189 -104 L 62 -84 L 115 -68 Z" stroke="#d9e9f3" fill="#d9e9f3"  /><path d="M 961 114 L 923 11 L 914 62 Z" stroke="#a576b4" fill="#a576b4"  /><path d="M 805 536 L 916 534 L 854 496 Z" stroke="#81137e" fill="#81137e"  /><path d="M 854 496 L 916 534 L 889 446 Z" stroke="#81127e" fill="#81127e"  /><path d="M 730 540 L 916 534 L 805 536 Z" stroke="#821781" fill="#821781"  /><path d="M -63 505 L -36 462 L -139 444 Z" stroke="#b889bf" fill="#b889bf"  /><path d="M -33 143 L -111 164 L -63 231 Z" stroke="#c1cde3" fill="#c1cde3"  /><path d="M -51 -32 L -48 86 L 59 5 Z" stroke="#e7f4f9" fill="#e7f4f9"  /><path d="M 923 11 L 876 -114 L 842 -16 Z" stroke="#b785bd" fill="#b785bd"  /><path d="M 812 -77 L 876 -114 L 706 -111 Z" stroke="#b88ec2" fill="#b88ec2"  /><path d="M 706 -111 L 876 -114 L 310 -114 Z" stroke="#ba9ecc" fill="#ba9ecc"  /><path d="M -119 344 L -13 342 L -30 315 Z" stroke="#baa1cd" fill="#baa1cd"  /><path d="M -36 462 L -63 505 L 50 534 Z" stroke="#b784bb" fill="#b784bb"  /><path d="M -48 86 L -111 164 L -33 143 Z" stroke="#cadaeb" fill="#cadaeb"  /><path d="M -63 231 L -120 267 L -30 315 Z" stroke="#bbb0d5" fill="#bbb0d5"  /><path d="M -97 43 L -111 164 L -48 86 Z" stroke="#d1e3ef" fill="#d1e3ef"  /><path d="M -138 237 L -120 267 L -63 231 Z" stroke="#bcb9da" fill="#bcb9da"  /><path d="M -120 267 L -119 344 L -30 315 Z" stroke="#baa5d0" fill="#baa5d0"  /><path d="M 62 -84 L -51 -32 L 59 5 Z" stroke="#e9f5f9" fill="#e9f5f9"  /><path d="M -130 8 L -138 237 L -111 164 Z" stroke="#c9d9ea" fill="#c9d9ea"  /><path d="M -111 164 L -138 237 L -63 231 Z" stroke="#bcc4df" fill="#bcc4df"  /><path d="M -120 267 L -138 237 L -119 344 Z" stroke="#bbadd4" fill="#bbadd4"  /><path d="M -51 -32 L -97 43 L -48 86 Z" stroke="#e4f1f7" fill="#e4f1f7"  /><path d="M -139 444 L -85 525 L -63 505 Z" stroke="#b785bc" fill="#b785bc"  /><path d="M -63 505 L -85 525 L 50 534 Z" stroke="#b784bb" fill="#b784bb"  /><path d="M 961 114 L 938 -114 L 923 11 Z" stroke="#b683bb" fill="#b683bb"  /><path d="M 923 11 L 938 -114 L 876 -114 Z" stroke="#b784bb" fill="#b784bb"  /><path d="M 62 -84 L -63 -72 L -51 -32 Z" stroke="#edf8fb" fill="#edf8fb"  /><path d="M -51 -32 L -130 8 L -97 43 Z" stroke="#ebf7fa" fill="#ebf7fa"  /><path d="M -103 -97 L -63 -72 L 62 -84 Z" stroke="#edf8fb" fill="#edf8fb"  /><path d="M -138 237 L -139 444 L -119 344 Z" stroke="#baa0cd" fill="#baa0cd"  /><path d="M -119 344 L -139 444 L -36 462 Z" stroke="#b892c4" fill="#b892c4"  /><path d="M -97 43 L -130 8 L -111 164 Z" stroke="#d8e9f2" fill="#d8e9f2"  /><path d="M -63 -72 L -130 8 L -51 -32 Z" stroke="#edf8fb" fill="#edf8fb"  /><path d="M 189 -104 L -103 -97 L 62 -84 Z" stroke="#e5f2f8" fill="#e5f2f8"  /><path d="M -63 -72 L -103 -97 L -130 8 Z" stroke="#edf8fb" fill="#edf8fb"  /><path d="M 310 -114 L -103 -97 L 189 -104 Z" stroke="#d8e8f2" fill="#d8e8f2"  /></svg>