<svg xmlns="http://www.w3.org/2000/svg" width="400" height="400"><path d="M 130 150 L 136 226 L 176 203 Z" stroke="#8e8dc2" fill="#8e8dc2"  /><path d="M 130 150 L 68 207 L 136 226 Z" stroke="#9799c8" fill="#9799c8"  /><path d="M 176 203 L 199 116 L 130 150 Z" stroke="#8d94c5" fill="#8d94c5"  /><path d="M 68 207 L 99 273 L 136 226 Z" stroke="#988cc2" fill="#988cc2"  /><path d="M 136 226 L 208 264 L 176 203 Z" stroke="#8a74b6" fill="#8a74b6"  /><path d="M 99 273 L 208 264 L 136 226 Z" stroke="#8d77b7" fill="#8d77b7"  /><path d="M 176 203 L 258 210 L 199 116 Z" stroke="#8a7bb9" fill="#8a7bb9"  /><path d="M 199 116 L 149 73 L 130 150 Z" stroke="#98a6cf" fill="#98a6cf"  /><path d="M 130 150 L 38 125 L 68 207 Z" stroke="#a0b2d5" fill="#a0b2d5"  /><path d="M 68 207 L 58 271 L 99 273 Z" stroke="#9f91c4" fill="#9f91c4"  /><path d="M 208 264 L 258 210 L 176 203 Z" stroke="#8966af" fill="#8966af"  /><path d="M 53 76 L 38 125 L 130 150 Z" stroke="#acc2dd" fill="#acc2dd"  /><path d="M 68 207 L -7 175 L 58 271 Z" stroke="#ada5cf" fill="#ada5cf"  /><path d="M 258 210 L 257 125 L 199 116 Z" stroke="#8c7ab9" fill="#8c7ab9"  /><path d="M 199 116 L 181 50 L 149 73 Z" stroke="#9fabd1" fill="#9fabd1"  /><path d="M 149 73 L 53 76 L 130 150 Z" stroke="#a7bcda" fill="#a7bcda"  /><path d="M 257 125 L 181 50 L 199 116 Z" stroke="#9a97c7" fill="#9a97c7"  /><path d="M 149 73 L 122 -19 L 53 76 Z" stroke="#b9cde3" fill="#b9cde3"  /><path d="M -48 143 L -7 175 L 38 125 Z" stroke="#c0cbe3" fill="#c0cbe3"  /><path d="M 38 125 L -7 175 L 68 207 Z" stroke="#b0bbda" fill="#b0bbda"  /><path d="M -19 302 L 66 339 L 58 271 Z" stroke="#ac8fc3" fill="#ac8fc3"  /><path d="M 58 271 L 66 339 L 99 273 Z" stroke="#9e87bf" fill="#9e87bf"  /><path d="M 99 273 L 178 354 L 208 264 Z" stroke="#8969af" fill="#8969af"  /><path d="M 100 377 L 178 354 L 99 273 Z" stroke="#906db0" fill="#906db0"  /><path d="M 208 264 L 298 264 L 258 210 Z" stroke="#8851a4" fill="#8851a4"  /><path d="M 253 370 L 298 264 L 208 264 Z" stroke="#86469d" fill="#86469d"  /><path d="M 258 210 L 345 194 L 257 125 Z" stroke="#8965ad" fill="#8965ad"  /><path d="M -16 44 L -48 143 L 38 125 Z" stroke="#cadaeb" fill="#cadaeb"  /><path d="M -7 175 L -19 302 L 58 271 Z" stroke="#b6a2ce" fill="#b6a2ce"  /><path d="M 66 339 L 100 377 L 99 273 Z" stroke="#9a7bb7" fill="#9a7bb7"  /><path d="M -95 282 L -19 302 L -7 175 Z" stroke="#baa4cf" fill="#baa4cf"  /><path d="M 66 339 L 65 420 L 100 377 Z" stroke="#9c74b3" fill="#9c74b3"  /><path d="M 300 46 L 210 -2 L 181 50 Z" stroke="#afa2ce" fill="#afa2ce"  /><path d="M 181 50 L 122 -19 L 149 73 Z" stroke="#b2c1dd" fill="#b2c1dd"  /><path d="M 298 264 L 345 194 L 258 210 Z" stroke="#8750a2" fill="#8750a2"  /><path d="M 257 125 L 300 46 L 181 50 Z" stroke="#a092c5" fill="#a092c5"  /><path d="M 210 -2 L 122 -19 L 181 50 Z" stroke="#b9c0dd" fill="#b9c0dd"  /><path d="M 53 76 L -16 44 L 38 125 Z" stroke="#c7dbeb" fill="#c7dbeb"  /><path d="M 70 -27 L -16 44 L 53 76 Z" stroke="#d5e6f1" fill="#d5e6f1"  /><path d="M 362 113 L 300 46 L 257 125 Z" stroke="#987eb9" fill="#987eb9"  /><path d="M 180 408 L 253 370 L 178 354 Z" stroke="#86469c" fill="#86469c"  /><path d="M 178 354 L 253 370 L 208 264 Z" stroke="#874da0" fill="#874da0"  /><path d="M 298 264 L 352 288 L 345 194 Z" stroke="#86409a" fill="#86409a"  /><path d="M 65 420 L 133 402 L 100 377 Z" stroke="#9567ac" fill="#9567ac"  /><path d="M 100 377 L 133 402 L 178 354 Z" stroke="#8d5fa8" fill="#8d5fa8"  /><path d="M 133 402 L 180 408 L 178 354 Z" stroke="#8754a2" fill="#8754a2"  /><path d="M 122 -19 L 70 -27 L 53 76 Z" stroke="#ccdfed" fill="#ccdfed"  /><path d="M -19 302 L 3 368 L 66 339 Z" stroke="#b28dc2" fill="#b28dc2"  /><path d="M 300 46 L 281 3 L 210 -2 Z" stroke="#b49ecb" fill="#b49ecb"  /><path d="M 210 -2 L 140 -94 L 122 -19 Z" stroke="#bdc8e1" fill="#bdc8e1"  /><path d="M 122 -19 L 140 -94 L 70 -27 Z" stroke="#c9d8e9" fill="#c9d8e9"  /><path d="M 345 194 L 362 113 L 257 125 Z" stroke="#8c69ae" fill="#8c69ae"  /><path d="M 300 46 L 351 3 L 281 3 Z" stroke="#b393c5" fill="#b393c5"  /><path d="M 253 370 L 352 288 L 298 264 Z" stroke="#853a96" fill="#853a96"  /><path d="M 345 194 L 431 204 L 362 113 Z" stroke="#8753a2" fill="#8753a2"  /><path d="M 3 368 L 65 420 L 66 339 Z" stroke="#a77db8" fill="#a77db8"  /><path d="M 133 402 L 65 420 L 180 408 Z" stroke="#8f5ea7" fill="#8f5ea7"  /><path d="M 70 -27 L -14 -10 L -16 44 Z" stroke="#e7f4f9" fill="#e7f4f9"  /><path d="M -109 134 L -113 208 L -48 143 Z" stroke="#bcc6e0" fill="#bcc6e0"  /><path d="M -113 208 L -95 282 L -7 175 Z" stroke="#bbaed5" fill="#bbaed5"  /><path d="M -19 302 L -107 337 L 3 368 Z" stroke="#b892c4" fill="#b892c4"  /><path d="M -113 208 L -7 175 L -48 143 Z" stroke="#bcc1de" fill="#bcc1de"  /><path d="M -109 134 L -48 143 L -117 37 Z" stroke="#cadaeb" fill="#cadaeb"  /><path d="M -117 37 L -48 143 L -16 44 Z" stroke="#d2e4f0" fill="#d2e4f0"  /><path d="M 424 108 L 373 57 L 362 113 Z" stroke="#976daf" fill="#976daf"  /><path d="M 362 113 L 373 57 L 300 46 Z" stroke="#9e7cb8" fill="#9e7cb8"  /><path d="M 373 57 L 351 3 L 300 46 Z" stroke="#ab87be" fill="#ab87be"  /><path d="M 218 -120 L 140 -94 L 210 -2 Z" stroke="#bcbbdb" fill="#bcbbdb"  /><path d="M 70 -27 L 56 -89 L -14 -10 Z" stroke="#dfeef5" fill="#dfeef5"  /><path d="M 257 -97 L 210 -2 L 281 3 Z" stroke="#baa5d0" fill="#baa5d0"  /><path d="M 253 370 L 352 376 L 352 288 Z" stroke="#842d8e" fill="#842d8e"  /><path d="M 352 288 L 431 204 L 345 194 Z" stroke="#853c97" fill="#853c97"  /><path d="M 333 439 L 352 376 L 253 370 Z" stroke="#832388" fill="#832388"  /><path d="M 65 420 L 261 445 L 180 408 Z" stroke="#864f9f" fill="#864f9f"  /><path d="M 180 408 L 261 445 L 253 370 Z" stroke="#853693" fill="#853693"  /><path d="M -14 -10 L -72 -2 L -16 44 Z" stroke="#e9f5f9" fill="#e9f5f9"  /><path d="M -6 -99 L -72 -2 L -14 -10 Z" stroke="#edf8fb" fill="#edf8fb"  /><path d="M 140 -94 L 56 -89 L 70 -27 Z" stroke="#cee0ed" fill="#cee0ed"  /><path d="M -113 208 L -107 337 L -95 282 Z" stroke="#ba9fcc" fill="#ba9fcc"  /><path d="M -95 282 L -107 337 L -19 302 Z" stroke="#b998c8" fill="#b998c8"  /><path d="M 3 368 L -14 432 L 65 420 Z" stroke="#b07fb9" fill="#b07fb9"  /><path d="M -107 337 L -14 432 L 3 368 Z" stroke="#b788be" fill="#b788be"  /><path d="M 65 420 L -14 432 L 261 445 Z" stroke="#9466ab" fill="#9466ab"  /><path d="M 442 274 L 431 204 L 352 288 Z" stroke="#842f8f" fill="#842f8f"  /><path d="M 373 57 L 428 23 L 351 3 Z" stroke="#ad80ba" fill="#ad80ba"  /><path d="M 431 204 L 424 108 L 362 113 Z" stroke="#8b59a4" fill="#8b59a4"  /><path d="M -72 -2 L -117 37 L -16 44 Z" stroke="#e3f1f7" fill="#e3f1f7"  /><path d="M -109 134 L -117 37 L -113 208 Z" stroke="#c5d3e7" fill="#c5d3e7"  /><path d="M 324 -73 L 257 -97 L 281 3 Z" stroke="#b99ccb" fill="#b99ccb"  /><path d="M 424 364 L 442 274 L 352 288 Z" stroke="#832388" fill="#832388"  /><path d="M 431 204 L 428 23 L 424 108 Z" stroke="#9263aa" fill="#9263aa"  /><path d="M 261 445 L 333 439 L 253 370 Z" stroke="#84298c" fill="#84298c"  /><path d="M 352 376 L 424 364 L 352 288 Z" stroke="#832187" fill="#832187"  /><path d="M 257 -97 L 218 -120 L 210 -2 Z" stroke="#bbacd3" fill="#bbacd3"  /><path d="M 140 -94 L 218 -120 L 56 -89 Z" stroke="#c2cfe4" fill="#c2cfe4"  /><path d="M 351 3 L 324 -73 L 281 3 Z" stroke="#b996c6" fill="#b996c6"  /><path d="M 257 -97 L 421 -122 L 218 -120 Z" stroke="#b99ac9" fill="#b99ac9"  /><path d="M 413 -26 L 324 -73 L 351 3 Z" stroke="#b88cc1" fill="#b88cc1"  /><path d="M 218 -120 L -6 -99 L 56 -89 Z" stroke="#cedfed" fill="#cedfed"  /><path d="M 56 -89 L -6 -99 L -14 -10 Z" stroke="#e9f5f9" fill="#e9f5f9"  /><path d="M -72 -2 L -119 -119 L -117 37 Z" stroke="#edf8fb" fill="#edf8fb"  /><path d="M 442 274 L 428 23 L 431 204 Z" stroke="#8650a0" fill="#8650a0"  /><path d="M 424 108 L 428 23 L 373 57 Z" stroke="#a073b2" fill="#a073b2"  /><path d="M 433 443 L 424 364 L 352 376 Z" stroke="#81107d" fill="#81107d"  /><path d="M 428 23 L 413 -26 L 351 3 Z" stroke="#b784bc" fill="#b784bc"  /><path d="M -113 208 L -117 428 L -107 337 Z" stroke="#b994c6" fill="#b994c6"  /><path d="M -107 337 L -117 428 L -14 432 Z" stroke="#b784bc" fill="#b784bc"  /><path d="M -14 432 L -117 428 L 261 445 Z" stroke="#a778b5" fill="#a778b5"  /><path d="M -117 37 L -117 428 L -113 208 Z" stroke="#bbadd4" fill="#bbadd4"  /><path d="M 333 439 L 433 443 L 352 376 Z" stroke="#821580" fill="#821580"  /><path d="M 424 364 L 433 443 L 442 274 Z" stroke="#821881" fill="#821881"  /><path d="M 261 445 L 433 443 L 333 439 Z" stroke="#821c84" fill="#821c84"  /><path d="M 218 -120 L -119 -119 L -6 -99 Z" stroke="#e2f0f6" fill="#e2f0f6"  /><path d="M -6 -99 L -119 -119 L -72 -2 Z" stroke="#edf8fb" fill="#edf8fb"  /><path d="M -117 37 L -119 -119 L -117 428 Z" stroke="#c7d6e9" fill="#c7d6e9"  /><path d="M 324 -73 L 421 -122 L 257 -97 Z" stroke="#b892c4" fill="#b892c4"  /><path d="M 218 -120 L 421 -122 L -119 -119 Z" stroke="#bcc2de" fill="#bcc2de"  /><path d="M 413 -26 L 421 -122 L 324 -73 Z" stroke="#b787bd" fill="#b787bd"  /><path d="M 428 23 L 421 -122 L 413 -26 Z" stroke="#b784bb" fill="#b784bb"  /><path d="M 442 274 L 421 -122 L 428 23 Z" stroke="#a274b3" fill="#a274b3"  /></svg>