<svg xmlns="http://www.w3.org/2000/svg" width="400" height="400"><path d="M 107 186 L 72 130 L 64 208 Z" stroke="#faa66e" fill="#faa66e"  /><path d="M 107 186 L 117 117 L 72 130 Z" stroke="#fcab71" fill="#fcab71"  /><path d="M -43 193 L 55 249 L 64 208 Z" stroke="#f4a17f" fill="#f4a17f"  /><path d="M 64 208 L 100 276 L 107 186 Z" stroke="#f38e5f" fill="#f38e5f"  /><path d="M -28 75 L -7 116 L 78 26 Z" stroke="#fdddae" fill="#fdddae"  /><path d="M 72 130 L -7 116 L 64 208 Z" stroke="#fdb886" fill="#fdb886"  /><path d="M 55 249 L 100 276 L 64 208 Z" stroke="#ef8c61" fill="#ef8c61"  /><path d="M 107 186 L 188 111 L 117 117 Z" stroke="#fc9f67" fill="#fc9f67"  /><path d="M -7 116 L -43 193 L 64 208 Z" stroke="#fbb894" fill="#fbb894"  /><path d="M 55 249 L 34 353 L 100 276 Z" stroke="#e8835e" fill="#e8835e"  /><path d="M 117 117 L 118 56 L 72 130 Z" stroke="#fdbb7d" fill="#fdbb7d"  /><path d="M 100 276 L 182 227 L 107 186 Z" stroke="#f17c52" fill="#f17c52"  /><path d="M 117 117 L 188 111 L 118 56 Z" stroke="#fdae73" fill="#fdae73"  /><path d="M 182 227 L 188 111 L 107 186 Z" stroke="#fa8756" fill="#fa8756"  /><path d="M 78 26 L -7 116 L 72 130 Z" stroke="#fdcf97" fill="#fdcf97"  /><path d="M -7 116 L -90 144 L -43 193 Z" stroke="#fdc29c" fill="#fdc29c"  /><path d="M 118 56 L 78 26 L 72 130 Z" stroke="#fdca8c" fill="#fdca8c"  /><path d="M -77 259 L -52 262 L -43 193 Z" stroke="#f19e86" fill="#f19e86"  /><path d="M -43 193 L -52 262 L 55 249 Z" stroke="#f19f87" fill="#f19f87"  /><path d="M -28 75 L -90 144 L -7 116 Z" stroke="#fdd2a8" fill="#fdd2a8"  /><path d="M -52 262 L -8 323 L 55 249 Z" stroke="#eb9480" fill="#eb9480"  /><path d="M -120 205 L -77 259 L -43 193 Z" stroke="#f4a68b" fill="#f4a68b"  /><path d="M -52 262 L -117 328 L -8 323 Z" stroke="#e78e7c" fill="#e78e7c"  /><path d="M 78 26 L 24 -3 L -28 75 Z" stroke="#fee3bd" fill="#fee3bd"  /><path d="M -28 75 L -127 29 L -90 144 Z" stroke="#fdddb1" fill="#fdddb1"  /><path d="M 118 56 L 152 -3 L 78 26 Z" stroke="#fdca99" fill="#fdca99"  /><path d="M 78 26 L 113 -80 L 24 -3 Z" stroke="#fee0b6" fill="#fee0b6"  /><path d="M 188 111 L 193 34 L 118 56 Z" stroke="#fcad76" fill="#fcad76"  /><path d="M 270 41 L 193 34 L 188 111 Z" stroke="#f4996d" fill="#f4996d"  /><path d="M -8 323 L 34 353 L 55 249 Z" stroke="#e6876e" fill="#e6876e"  /><path d="M 100 276 L 226 281 L 182 227 Z" stroke="#eb6340" fill="#eb6340"  /><path d="M 193 34 L 152 -3 L 118 56 Z" stroke="#fdba8c" fill="#fdba8c"  /><path d="M 214 342 L 226 281 L 100 276 Z" stroke="#e35538" fill="#e35538"  /><path d="M 182 227 L 265 208 L 188 111 Z" stroke="#f06e48" fill="#f06e48"  /><path d="M 34 353 L 119 356 L 100 276 Z" stroke="#e3754f" fill="#e3754f"  /><path d="M -90 144 L -120 205 L -43 193 Z" stroke="#fab694" fill="#fab694"  /><path d="M 226 281 L 265 208 L 182 227 Z" stroke="#e65137" fill="#e65137"  /><path d="M 28 -106 L -7 -37 L 24 -3 Z" stroke="#feedd2" fill="#feedd2"  /><path d="M 24 -3 L -7 -37 L -28 75 Z" stroke="#feedd3" fill="#feedd3"  /><path d="M -90 144 L -127 29 L -120 205 Z" stroke="#fdcca3" fill="#fdcca3"  /><path d="M 265 208 L 293 140 L 188 111 Z" stroke="#ee6c47" fill="#ee6c47"  /><path d="M 119 356 L 214 342 L 100 276 Z" stroke="#e35e3d" fill="#e35e3d"  /><path d="M 226 281 L 278 264 L 265 208 Z" stroke="#df442f" fill="#df442f"  /><path d="M 362 221 L 357 115 L 293 140 Z" stroke="#e15637" fill="#e15637"  /><path d="M 254 340 L 278 264 L 226 281 Z" stroke="#d93a28" fill="#d93a28"  /><path d="M 293 140 L 270 41 L 188 111 Z" stroke="#ee8258" fill="#ee8258"  /><path d="M 193 34 L 206 -31 L 152 -3 Z" stroke="#f9b593" fill="#f9b593"  /><path d="M 277 3 L 206 -31 L 193 34 Z" stroke="#f3a388" fill="#f3a388"  /><path d="M 152 -3 L 113 -80 L 78 26 Z" stroke="#fdd0a7" fill="#fdd0a7"  /><path d="M -19 431 L 66 411 L 34 353 Z" stroke="#d9725f" fill="#d9725f"  /><path d="M 34 353 L 66 411 L 119 356 Z" stroke="#dc6e4d" fill="#dc6e4d"  /><path d="M 119 356 L 133 405 L 214 342 Z" stroke="#dc5033" fill="#dc5033"  /><path d="M -19 431 L 34 353 L -8 323 Z" stroke="#dd7f70" fill="#dd7f70"  /><path d="M -104 -5 L -127 29 L -28 75 Z" stroke="#fee9c9" fill="#fee9c9"  /><path d="M 66 411 L 133 405 L 119 356 Z" stroke="#d95e3f" fill="#d95e3f"  /><path d="M -120 205 L -117 328 L -77 259 Z" stroke="#ed9782" fill="#ed9782"  /><path d="M -77 259 L -117 328 L -52 262 Z" stroke="#ea937f" fill="#ea937f"  /><path d="M -127 29 L -117 328 L -120 205 Z" stroke="#f9b393" fill="#f9b393"  /><path d="M -7 -37 L -104 -5 L -28 75 Z" stroke="#feeed4" fill="#feeed4"  /><path d="M 214 342 L 254 340 L 226 281 Z" stroke="#d83b28" fill="#d83b28"  /><path d="M 273 434 L 254 340 L 214 342 Z" stroke="#ce2a1d" fill="#ce2a1d"  /><path d="M 206 -31 L 113 -80 L 152 -3 Z" stroke="#fdc09a" fill="#fdc09a"  /><path d="M -7 -37 L -97 -112 L -104 -5 Z" stroke="#fef0d9" fill="#fef0d9"  /><path d="M 334 -16 L 277 3 L 270 41 Z" stroke="#e88e79" fill="#e88e79"  /><path d="M 270 41 L 277 3 L 193 34 Z" stroke="#ef9678" fill="#ef9678"  /><path d="M 206 -31 L 225 -74 L 113 -80 Z" stroke="#fab694" fill="#fab694"  /><path d="M 66 411 L 178 423 L 133 405 Z" stroke="#d85437" fill="#d85437"  /><path d="M 133 405 L 178 423 L 214 342 Z" stroke="#d7432b" fill="#d7432b"  /><path d="M -117 328 L -19 431 L -8 323 Z" stroke="#de8173" fill="#de8173"  /><path d="M 66 411 L -19 431 L 178 423 Z" stroke="#d86747" fill="#d86747"  /><path d="M 113 -80 L 28 -106 L 24 -3 Z" stroke="#fee4be" fill="#fee4be"  /><path d="M 277 3 L 225 -74 L 206 -31 Z" stroke="#f19f87" fill="#f19f87"  /><path d="M 113 -80 L 276 -123 L 28 -106 Z" stroke="#fdc79f" fill="#fdc79f"  /><path d="M 293 140 L 357 115 L 270 41 Z" stroke="#e6744e" fill="#e6744e"  /><path d="M 337 -92 L 276 -123 L 225 -74 Z" stroke="#eb9480" fill="#eb9480"  /><path d="M 362 221 L 293 140 L 265 208 Z" stroke="#e15034" fill="#e15034"  /><path d="M 362 221 L 265 208 L 278 264 Z" stroke="#db402b" fill="#db402b"  /><path d="M 358 303 L 362 221 L 278 264 Z" stroke="#d22f21" fill="#d22f21"  /><path d="M 276 -123 L -7 -118 L 28 -106 Z" stroke="#fdd7ac" fill="#fdd7ac"  /><path d="M 28 -106 L -7 -118 L -7 -37 Z" stroke="#feefd7" fill="#feefd7"  /><path d="M 423 137 L 366 66 L 357 115 Z" stroke="#db6040" fill="#db6040"  /><path d="M 357 115 L 366 66 L 270 41 Z" stroke="#e27753" fill="#e27753"  /><path d="M 254 340 L 358 303 L 278 264 Z" stroke="#d12e20" fill="#d12e20"  /><path d="M 324 406 L 358 303 L 254 340 Z" stroke="#c82016" fill="#c82016"  /><path d="M 366 66 L 334 -16 L 270 41 Z" stroke="#e4836a" fill="#e4836a"  /><path d="M -7 -118 L -97 -112 L -7 -37 Z" stroke="#fef0d9" fill="#fef0d9"  /><path d="M -104 -5 L -97 -112 L -127 29 Z" stroke="#fef0d9" fill="#fef0d9"  /><path d="M -115 452 L 273 434 L 178 423 Z" stroke="#d8593b" fill="#d8593b"  /><path d="M 178 423 L 273 434 L 214 342 Z" stroke="#ce2d1e" fill="#ce2d1e"  /><path d="M -117 328 L -115 452 L -19 431 Z" stroke="#d9786d" fill="#d9786d"  /><path d="M -19 431 L -115 452 L 178 423 Z" stroke="#d87565" fill="#d87565"  /><path d="M -127 29 L -115 452 L -117 328 Z" stroke="#ec9681" fill="#ec9681"  /><path d="M 273 434 L 324 406 L 254 340 Z" stroke="#c51c14" fill="#c51c14"  /><path d="M 324 406 L 377 332 L 358 303 Z" stroke="#c21710" fill="#c21710"  /><path d="M 427 247 L 426 213 L 362 221 Z" stroke="#cd2a1d" fill="#cd2a1d"  /><path d="M 362 221 L 423 137 L 357 115 Z" stroke="#da4c30" fill="#da4c30"  /><path d="M 426 213 L 423 137 L 362 221 Z" stroke="#d33a25" fill="#d33a25"  /><path d="M 409 -32 L 337 -92 L 334 -16 Z" stroke="#df8173" fill="#df8173"  /><path d="M 337 -92 L 225 -74 L 277 3 Z" stroke="#eb9480" fill="#eb9480"  /><path d="M 225 -74 L 276 -123 L 113 -80 Z" stroke="#f6ac8e" fill="#f6ac8e"  /><path d="M 337 -92 L 277 3 L 334 -16 Z" stroke="#e58b7a" fill="#e58b7a"  /><path d="M 427 247 L 362 221 L 358 303 Z" stroke="#cb251a" fill="#cb251a"  /><path d="M 377 332 L 427 247 L 358 303 Z" stroke="#c51b13" fill="#c51b13"  /><path d="M 409 -32 L 334 -16 L 366 66 Z" stroke="#dd7e6e" fill="#dd7e6e"  /><path d="M 449 -74 L 428 38 L 423 137 Z" stroke="#d8705c" fill="#d8705c"  /><path d="M 423 137 L 428 38 L 366 66 Z" stroke="#d86645" fill="#d86645"  /><path d="M 449 -74 L 423 137 L 426 213 Z" stroke="#d86141" fill="#d86141"  /><path d="M 377 332 L 420 350 L 427 247 Z" stroke="#c1150e" fill="#c1150e"  /><path d="M 420 417 L 420 350 L 377 332 Z" stroke="#b80805" fill="#b80805"  /><path d="M 428 38 L 409 -32 L 366 66 Z" stroke="#d87361" fill="#d87361"  /><path d="M 273 434 L 420 417 L 324 406 Z" stroke="#bc0e0a" fill="#bc0e0a"  /><path d="M 324 406 L 420 417 L 377 332 Z" stroke="#b90a07" fill="#b90a07"  /><path d="M 420 350 L 420 417 L 427 247 Z" stroke="#bc0e0a" fill="#bc0e0a"  /><path d="M 427 247 L 449 -74 L 426 213 Z" stroke="#d85336" fill="#d85336"  /><path d="M 428 38 L 449 -74 L 409 -32 Z" stroke="#d9786d" fill="#d9786d"  /><path d="M 409 -32 L 449 -74 L 337 -92 Z" stroke="#d9786d" fill="#d9786d"  /><path d="M 337 -92 L 449 -74 L 276 -123 Z" stroke="#df8374" fill="#df8374"  /><path d="M 420 417 L 449 -74 L 427 247 Z" stroke="#d23724" fill="#d23724"  /></svg>