<svg xmlns="http://www.w3.org/2000/svg" width="900" height="500"><path d="M 423 234 L 474 307 L 495 236 Z" stroke="#ed6643" fill="#ed6643"  /><path d="M 423 234 L 410 309 L 474 307 Z" stroke="#ec6341" fill="#ec6341"  /><path d="M 474 307 L 536 264 L 495 236 Z" stroke="#ea5c3d" fill="#ea5c3d"  /><path d="M 536 264 L 552 192 L 495 236 Z" stroke="#ed6441" fill="#ed6441"  /><path d="M 495 236 L 466 125 L 423 234 Z" stroke="#f57b4f" fill="#f57b4f"  /><path d="M 423 234 L 333 264 L 410 309 Z" stroke="#f17149" fill="#f17149"  /><path d="M 390 374 L 514 379 L 474 307 Z" stroke="#e24f35" fill="#e24f35"  /><path d="M 474 307 L 560 351 L 536 264 Z" stroke="#e34c34" fill="#e34c34"  /><path d="M 536 264 L 629 227 L 552 192 Z" stroke="#ea5f3e" fill="#ea5f3e"  /><path d="M 390 374 L 474 307 L 410 309 Z" stroke="#e75a3b" fill="#e75a3b"  /><path d="M 310 336 L 390 374 L 410 309 Z" stroke="#ea6240" fill="#ea6240"  /><path d="M 514 379 L 560 351 L 474 307 Z" stroke="#df4630" fill="#df4630"  /><path d="M 552 192 L 466 125 L 495 236 Z" stroke="#f2774e" fill="#f2774e"  /><path d="M 423 234 L 311 198 L 333 264 Z" stroke="#f88354" fill="#f88354"  /><path d="M 629 227 L 559 153 L 552 192 Z" stroke="#ed6a45" fill="#ed6a45"  /><path d="M 552 192 L 559 153 L 466 125 Z" stroke="#f17c52" fill="#f17c52"  /><path d="M 466 125 L 419 117 L 423 234 Z" stroke="#f78c5b" fill="#f78c5b"  /><path d="M 419 117 L 344 160 L 423 234 Z" stroke="#fa905d" fill="#fa905d"  /><path d="M 344 160 L 311 198 L 423 234 Z" stroke="#fc8e5a" fill="#fc8e5a"  /><path d="M 560 351 L 616 309 L 536 264 Z" stroke="#e04530" fill="#e04530"  /><path d="M 277 276 L 310 336 L 333 264 Z" stroke="#f1784f" fill="#f1784f"  /><path d="M 333 264 L 310 336 L 410 309 Z" stroke="#ef6d47" fill="#ef6d47"  /><path d="M 616 309 L 629 227 L 536 264 Z" stroke="#e45036" fill="#e45036"  /><path d="M 311 198 L 280 237 L 333 264 Z" stroke="#f88b5a" fill="#f88b5a"  /><path d="M 280 237 L 277 276 L 333 264 Z" stroke="#f58456" fill="#f58456"  /><path d="M 390 374 L 490 447 L 514 379 Z" stroke="#dc462e" fill="#dc462e"  /><path d="M 514 379 L 566 424 L 560 351 Z" stroke="#d83a28" fill="#d83a28"  /><path d="M 560 351 L 653 359 L 616 309 Z" stroke="#da3c29" fill="#da3c29"  /><path d="M 397 465 L 490 447 L 390 374 Z" stroke="#db472f" fill="#db472f"  /><path d="M 559 153 L 473 73 L 466 125 Z" stroke="#f38d5f" fill="#f38d5f"  /><path d="M 466 125 L 473 73 L 419 117 Z" stroke="#f69a66" fill="#f69a66"  /><path d="M 419 117 L 364 79 L 344 160 Z" stroke="#fba46b" fill="#fba46b"  /><path d="M 490 447 L 566 424 L 514 379 Z" stroke="#d63826" fill="#d63826"  /><path d="M 419 43 L 364 79 L 419 117 Z" stroke="#faa975" fill="#faa975"  /><path d="M 344 160 L 251 151 L 311 198 Z" stroke="#fca168" fill="#fca168"  /><path d="M 311 198 L 251 151 L 280 237 Z" stroke="#fc9c65" fill="#fc9c65"  /><path d="M 311 432 L 397 465 L 390 374 Z" stroke="#e05436" fill="#e05436"  /><path d="M 625 419 L 653 359 L 560 351 Z" stroke="#d53424" fill="#d53424"  /><path d="M 616 309 L 698 226 L 629 227 Z" stroke="#e24e34" fill="#e24e34"  /><path d="M 252 421 L 311 432 L 310 336 Z" stroke="#e46643" fill="#e46643"  /><path d="M 310 336 L 311 432 L 390 374 Z" stroke="#e6613f" fill="#e6613f"  /><path d="M 473 73 L 419 43 L 419 117 Z" stroke="#f7a272" fill="#f7a272"  /><path d="M 397 465 L 470 489 L 490 447 Z" stroke="#d53b27" fill="#d53b27"  /><path d="M 490 447 L 551 527 L 566 424 Z" stroke="#cf2c1e" fill="#cf2c1e"  /><path d="M 629 227 L 638 127 L 559 153 Z" stroke="#eb6e49" fill="#eb6e49"  /><path d="M 559 153 L 583 67 L 473 73 Z" stroke="#f08c60" fill="#f08c60"  /><path d="M 473 73 L 434 -19 L 419 43 Z" stroke="#f7a984" fill="#f7a984"  /><path d="M 687 149 L 638 127 L 629 227 Z" stroke="#e86a46" fill="#e86a46"  /><path d="M 635 536 L 625 419 L 566 424 Z" stroke="#cb251a" fill="#cb251a"  /><path d="M 566 424 L 625 419 L 560 351 Z" stroke="#d43323" fill="#d43323"  /><path d="M 638 127 L 583 67 L 559 153 Z" stroke="#ec8157" fill="#ec8157"  /><path d="M 251 85 L 344 160 L 364 79 Z" stroke="#fdb175" fill="#fdb175"  /><path d="M 251 85 L 251 151 L 344 160 Z" stroke="#fdb074" fill="#fdb074"  /><path d="M 196 232 L 204 286 L 277 276 Z" stroke="#f48f5f" fill="#f48f5f"  /><path d="M 736 301 L 698 226 L 616 309 Z" stroke="#dc422d" fill="#dc422d"  /><path d="M 277 276 L 236 389 L 310 336 Z" stroke="#ec744d" fill="#ec744d"  /><path d="M 204 286 L 236 389 L 277 276 Z" stroke="#ee7e54" fill="#ee7e54"  /><path d="M 196 232 L 277 276 L 280 237 Z" stroke="#f6905f" fill="#f6905f"  /><path d="M 698 226 L 687 149 L 629 227 Z" stroke="#e75e3d" fill="#e75e3d"  /><path d="M 638 127 L 612 49 L 583 67 Z" stroke="#eb8761" fill="#eb8761"  /><path d="M 236 389 L 252 421 L 310 336 Z" stroke="#e66d48" fill="#e66d48"  /><path d="M 350 540 L 394 530 L 397 465 Z" stroke="#d6432a" fill="#d6432a"  /><path d="M 397 465 L 394 530 L 470 489 Z" stroke="#d43c27" fill="#d43c27"  /><path d="M 251 151 L 196 232 L 280 237 Z" stroke="#fb9f68" fill="#fb9f68"  /><path d="M 722 84 L 612 49 L 638 127 Z" stroke="#e8815b" fill="#e8815b"  /><path d="M 498 -37 L 434 -19 L 473 73 Z" stroke="#f5a98b" fill="#f5a98b"  /><path d="M 270 -9 L 251 85 L 364 79 Z" stroke="#fdc18d" fill="#fdc18d"  /><path d="M 251 151 L 204 152 L 196 232 Z" stroke="#fdad72" fill="#fdad72"  /><path d="M 350 540 L 397 465 L 311 432 Z" stroke="#da4c30" fill="#da4c30"  /><path d="M 470 489 L 551 527 L 490 447 Z" stroke="#cf2e1f" fill="#cf2e1f"  /><path d="M 215 79 L 204 152 L 251 151 Z" stroke="#fdbc7d" fill="#fdbc7d"  /><path d="M 394 530 L 551 527 L 470 489 Z" stroke="#d03221" fill="#d03221"  /><path d="M 635 536 L 690 420 L 625 419 Z" stroke="#c92117" fill="#c92117"  /><path d="M 625 419 L 690 420 L 653 359 Z" stroke="#cf2c1e" fill="#cf2c1e"  /><path d="M 653 359 L 736 301 L 616 309 Z" stroke="#d83927" fill="#d83927"  /><path d="M 738 344 L 736 301 L 653 359 Z" stroke="#d43223" fill="#d43223"  /><path d="M 782 162 L 722 84 L 687 149 Z" stroke="#e36d49" fill="#e36d49"  /><path d="M 498 -37 L 473 73 L 536 -35 Z" stroke="#f3a48a" fill="#f3a48a"  /><path d="M 419 43 L 324 -17 L 364 79 Z" stroke="#fcb78a" fill="#fcb78a"  /><path d="M 132 270 L 182 336 L 204 286 Z" stroke="#f08d61" fill="#f08d61"  /><path d="M 204 286 L 182 336 L 236 389 Z" stroke="#eb7f56" fill="#eb7f56"  /><path d="M 236 389 L 164 457 L 252 421 Z" stroke="#e16e4a" fill="#e16e4a"  /><path d="M 132 270 L 204 286 L 196 232 Z" stroke="#f59866" fill="#f59866"  /><path d="M 690 420 L 738 344 L 653 359 Z" stroke="#d02c1f" fill="#d02c1f"  /><path d="M 259 530 L 350 540 L 311 432 Z" stroke="#d85034" fill="#d85034"  /><path d="M 394 530 L 350 540 L 551 527 Z" stroke="#d33925" fill="#d33925"  /><path d="M 536 -35 L 473 73 L 583 67 Z" stroke="#f19879" fill="#f19879"  /><path d="M 270 -9 L 215 79 L 251 85 Z" stroke="#fdc994" fill="#fdc994"  /><path d="M 251 85 L 215 79 L 251 151 Z" stroke="#fdc081" fill="#fdc081"  /><path d="M 612 49 L 536 -35 L 583 67 Z" stroke="#ee9479" fill="#ee9479"  /><path d="M 410 -67 L 324 -17 L 434 -19 Z" stroke="#fbb996" fill="#fbb996"  /><path d="M 434 -19 L 324 -17 L 419 43 Z" stroke="#fbb895" fill="#fbb895"  /><path d="M 687 149 L 722 84 L 638 127 Z" stroke="#e67650" fill="#e67650"  /><path d="M 612 49 L 660 10 L 536 -35 Z" stroke="#ec957e" fill="#ec957e"  /><path d="M 782 162 L 687 149 L 698 226 Z" stroke="#e35f3e" fill="#e35f3e"  /><path d="M 722 84 L 660 10 L 612 49 Z" stroke="#e8886a" fill="#e8886a"  /><path d="M 551 527 L 635 536 L 566 424 Z" stroke="#c92117" fill="#c92117"  /><path d="M 690 420 L 766 387 L 738 344 Z" stroke="#cc271b" fill="#cc271b"  /><path d="M 350 540 L 635 536 L 551 527 Z" stroke="#cd2a1c" fill="#cd2a1c"  /><path d="M 132 141 L 196 232 L 204 152 Z" stroke="#fdb578" fill="#fdb578"  /><path d="M 132 141 L 133 239 L 196 232 Z" stroke="#fcae77" fill="#fcae77"  /><path d="M 133 239 L 132 270 L 196 232 Z" stroke="#f79f6e" fill="#f79f6e"  /><path d="M 324 -17 L 270 -9 L 364 79 Z" stroke="#fdc298" fill="#fdc298"  /><path d="M 835 311 L 814 262 L 736 301 Z" stroke="#d33323" fill="#d33323"  /><path d="M 801 228 L 782 162 L 698 226 Z" stroke="#e05335" fill="#e05335"  /><path d="M 788 440 L 766 387 L 690 420 Z" stroke="#c71f16" fill="#c71f16"  /><path d="M 177 510 L 259 530 L 252 421 Z" stroke="#d96040" fill="#d96040"  /><path d="M 252 421 L 259 530 L 311 432 Z" stroke="#dc5d3d" fill="#dc5d3d"  /><path d="M 164 457 L 236 389 L 118 386 Z" stroke="#e37752" fill="#e37752"  /><path d="M 498 -37 L 410 -67 L 434 -19 Z" stroke="#f7ae90" fill="#f7ae90"  /><path d="M 247 -81 L 194 -32 L 270 -9 Z" stroke="#fdd4aa" fill="#fdd4aa"  /><path d="M 466 -108 L 410 -67 L 498 -37 Z" stroke="#f6ac8f" fill="#f6ac8f"  /><path d="M 801 228 L 698 226 L 736 301 Z" stroke="#db452e" fill="#db452e"  /><path d="M 814 262 L 801 228 L 736 301 Z" stroke="#d73d29" fill="#d73d29"  /><path d="M 215 79 L 132 141 L 204 152 Z" stroke="#fdc484" fill="#fdc484"  /><path d="M 27 374 L 118 386 L 14 301 Z" stroke="#ea8e74" fill="#ea8e74"  /><path d="M 139 62 L 132 141 L 215 79 Z" stroke="#fdcf90" fill="#fdcf90"  /><path d="M 118 386 L 236 389 L 182 336 Z" stroke="#e87e56" fill="#e87e56"  /><path d="M 835 311 L 736 301 L 738 344 Z" stroke="#d12f20" fill="#d12f20"  /><path d="M 801 228 L 848 214 L 782 162 Z" stroke="#dd4f33" fill="#dd4f33"  /><path d="M 42 187 L 132 270 L 133 239 Z" stroke="#f9aa7c" fill="#f9aa7c"  /><path d="M 132 270 L 118 386 L 182 336 Z" stroke="#ec8962" fill="#ec8962"  /><path d="M 660 10 L 563 -84 L 536 -35 Z" stroke="#ed9883" fill="#ed9883"  /><path d="M 536 -35 L 563 -84 L 498 -37 Z" stroke="#f19e87" fill="#f19e87"  /><path d="M 563 -84 L 466 -108 L 498 -37 Z" stroke="#f3a389" fill="#f3a389"  /><path d="M 247 -81 L 270 -9 L 324 -17 Z" stroke="#fdcca4" fill="#fdcca4"  /><path d="M 118 500 L 177 510 L 164 457 Z" stroke="#d96b4c" fill="#d96b4c"  /><path d="M 164 457 L 177 510 L 252 421 Z" stroke="#dc6a47" fill="#dc6a47"  /><path d="M 730 540 L 788 440 L 690 420 Z" stroke="#c21710" fill="#c21710"  /><path d="M 766 387 L 835 311 L 738 344 Z" stroke="#cd291c" fill="#cd291c"  /><path d="M 194 -32 L 139 62 L 215 79 Z" stroke="#fdd7a3" fill="#fdd7a3"  /><path d="M 877 379 L 835 311 L 766 387 Z" stroke="#c92217" fill="#c92217"  /><path d="M 814 262 L 848 214 L 801 228 Z" stroke="#d8432c" fill="#d8432c"  /><path d="M 722 84 L 735 3 L 660 10 Z" stroke="#e5866d" fill="#e5866d"  /><path d="M 660 10 L 655 -103 L 563 -84 Z" stroke="#eb9480" fill="#eb9480"  /><path d="M 797 36 L 735 3 L 722 84 Z" stroke="#e28067" fill="#e28067"  /><path d="M 797 36 L 722 84 L 841 85 Z" stroke="#e0775a" fill="#e0775a"  /><path d="M 635 536 L 730 540 L 690 420 Z" stroke="#c1160f" fill="#c1160f"  /><path d="M 350 540 L 730 540 L 635 536 Z" stroke="#c92217" fill="#c92217"  /><path d="M 835 311 L 848 214 L 814 262 Z" stroke="#d43925" fill="#d43925"  /><path d="M 247 -81 L 324 -17 L 310 -114 Z" stroke="#fdcaa2" fill="#fdcaa2"  /><path d="M 270 -9 L 194 -32 L 215 79 Z" stroke="#fdd4a6" fill="#fdd4a6"  /><path d="M 118 386 L 113 460 L 164 457 Z" stroke="#e07758" fill="#e07758"  /><path d="M 45 437 L 113 460 L 118 386 Z" stroke="#e17c62" fill="#e17c62"  /><path d="M 310 -114 L 324 -17 L 410 -67 Z" stroke="#fdc19b" fill="#fdc19b"  /><path d="M 466 -108 L 310 -114 L 410 -67 Z" stroke="#fbb895" fill="#fbb895"  /><path d="M 841 85 L 722 84 L 782 162 Z" stroke="#e06f4b" fill="#e06f4b"  /><path d="M 113 460 L 118 500 L 164 457 Z" stroke="#db7053" fill="#db7053"  /><path d="M 177 510 L 50 534 L 259 530 Z" stroke="#d86849" fill="#d86849"  /><path d="M 848 214 L 846 115 L 782 162 Z" stroke="#dd5a3b" fill="#dd5a3b"  /><path d="M 706 -111 L 660 10 L 735 3 Z" stroke="#e68d7b" fill="#e68d7b"  /><path d="M 706 -111 L 655 -103 L 660 10 Z" stroke="#e88f7d" fill="#e88f7d"  /><path d="M 563 -84 L 655 -103 L 466 -108 Z" stroke="#ef9b84" fill="#ef9b84"  /><path d="M 466 -108 L 706 -111 L 310 -114 Z" stroke="#f4a68b" fill="#f4a68b"  /><path d="M 846 115 L 841 85 L 782 162 Z" stroke="#dd6745" fill="#dd6745"  /><path d="M 29 132 L 42 187 L 132 141 Z" stroke="#fdc696" fill="#fdc696"  /><path d="M 132 141 L 42 187 L 133 239 Z" stroke="#fdb885" fill="#fdb885"  /><path d="M 113 460 L 50 534 L 118 500 Z" stroke="#d86f58" fill="#d86f58"  /><path d="M 55 68 L 132 141 L 139 62 Z" stroke="#fdd59d" fill="#fdd59d"  /><path d="M 788 440 L 877 379 L 766 387 Z" stroke="#c51b13" fill="#c51b13"  /><path d="M 938 308 L 928 207 L 848 214 Z" stroke="#d23824" fill="#d23824"  /><path d="M 848 214 L 928 207 L 846 115 Z" stroke="#d95034" fill="#d95034"  /><path d="M 889 446 L 877 379 L 788 440 Z" stroke="#c0130d" fill="#c0130d"  /><path d="M 730 540 L 805 536 L 788 440 Z" stroke="#bb0d09" fill="#bb0d09"  /><path d="M 14 301 L 118 386 L 132 270 Z" stroke="#ee9170" fill="#ee9170"  /><path d="M 42 187 L 14 301 L 132 270 Z" stroke="#f6a781" fill="#f6a781"  /><path d="M 842 -16 L 812 -9 L 797 36 Z" stroke="#de8071" fill="#de8071"  /><path d="M 797 36 L 812 -9 L 735 3 Z" stroke="#e08271" fill="#e08271"  /><path d="M 27 374 L 45 437 L 118 386 Z" stroke="#e4846b" fill="#e4846b"  /><path d="M 59 5 L 55 68 L 139 62 Z" stroke="#fedfb5" fill="#fedfb5"  /><path d="M -63 231 L -30 315 L 14 301 Z" stroke="#f3a389" fill="#f3a389"  /><path d="M 109 -24 L 139 62 L 194 -32 Z" stroke="#fee1b8" fill="#fee1b8"  /><path d="M 55 68 L 29 132 L 132 141 Z" stroke="#fdd29e" fill="#fdd29e"  /><path d="M 812 -77 L 706 -111 L 735 3 Z" stroke="#e28777" fill="#e28777"  /><path d="M 655 -103 L 706 -111 L 466 -108 Z" stroke="#ec9681" fill="#ec9681"  /><path d="M 189 -104 L 194 -32 L 247 -81 Z" stroke="#fdd9ad" fill="#fdd9ad"  /><path d="M 115 -68 L 109 -24 L 194 -32 Z" stroke="#fee2ba" fill="#fee2ba"  /><path d="M 310 -114 L 189 -104 L 247 -81 Z" stroke="#fdd2a8" fill="#fdd2a8"  /><path d="M 805 536 L 854 496 L 788 440 Z" stroke="#ba0a07" fill="#ba0a07"  /><path d="M 854 496 L 889 446 L 788 440 Z" stroke="#bb0d09" fill="#bb0d09"  /><path d="M 938 308 L 848 214 L 835 311 Z" stroke="#d02f20" fill="#d02f20"  /><path d="M 846 115 L 914 62 L 841 85 Z" stroke="#da6c4c" fill="#da6c4c"  /><path d="M 841 85 L 842 -16 L 797 36 Z" stroke="#dd7964" fill="#dd7964"  /><path d="M 938 308 L 835 311 L 877 379 Z" stroke="#c82117" fill="#c82117"  /><path d="M 914 62 L 842 -16 L 841 85 Z" stroke="#db745e" fill="#db745e"  /><path d="M 812 -9 L 812 -77 L 735 3 Z" stroke="#e08475" fill="#e08475"  /><path d="M 62 -84 L 59 5 L 109 -24 Z" stroke="#fee8c8" fill="#fee8c8"  /><path d="M 109 -24 L 59 5 L 139 62 Z" stroke="#fee3bd" fill="#fee3bd"  /><path d="M -48 86 L -33 143 L 29 132 Z" stroke="#fdd8ad" fill="#fdd8ad"  /><path d="M 189 -104 L 115 -68 L 194 -32 Z" stroke="#fedfb5" fill="#fedfb5"  /><path d="M 14 301 L -13 342 L 27 374 Z" stroke="#ec957f" fill="#ec957f"  /><path d="M 27 374 L -36 462 L 45 437 Z" stroke="#e28574" fill="#e28574"  /><path d="M -30 315 L -13 342 L 14 301 Z" stroke="#ee9984" fill="#ee9984"  /><path d="M 929 382 L 938 308 L 877 379 Z" stroke="#c41b12" fill="#c41b12"  /><path d="M 938 418 L 929 382 L 877 379 Z" stroke="#c0140e" fill="#c0140e"  /><path d="M -36 462 L 50 534 L 45 437 Z" stroke="#db7a6b" fill="#db7a6b"  /><path d="M 45 437 L 50 534 L 113 460 Z" stroke="#db7560" fill="#db7560"  /><path d="M 118 500 L 50 534 L 177 510 Z" stroke="#d86d53" fill="#d86d53"  /><path d="M 259 530 L 50 534 L 350 540 Z" stroke="#d85f40" fill="#d85f40"  /><path d="M -63 231 L 14 301 L 42 187 Z" stroke="#f8b191" fill="#f8b191"  /><path d="M -13 342 L -36 462 L 27 374 Z" stroke="#e58c7a" fill="#e58c7a"  /><path d="M -33 143 L 42 187 L 29 132 Z" stroke="#fdcca1" fill="#fdcca1"  /><path d="M 842 -16 L 812 -77 L 812 -9 Z" stroke="#de8072" fill="#de8072"  /><path d="M 961 114 L 846 115 L 928 207 Z" stroke="#d8583a" fill="#d8583a"  /><path d="M 961 114 L 914 62 L 846 115 Z" stroke="#d86746" fill="#d86746"  /><path d="M 842 -16 L 876 -114 L 812 -77 Z" stroke="#dc7e71" fill="#dc7e71"  /><path d="M 929 382 L 938 418 L 938 308 Z" stroke="#c31811" fill="#c31811"  /><path d="M 889 446 L 938 418 L 877 379 Z" stroke="#bd100b" fill="#bd100b"  /><path d="M 916 534 L 938 418 L 889 446 Z" stroke="#b70604" fill="#b70604"  /><path d="M -48 86 L 29 132 L 55 68 Z" stroke="#fddeb1" fill="#fddeb1"  /><path d="M -33 143 L -63 231 L 42 187 Z" stroke="#fdc39c" fill="#fdc39c"  /><path d="M -119 344 L -36 462 L -13 342 Z" stroke="#e78e7b" fill="#e78e7b"  /><path d="M 938 308 L 961 114 L 928 207 Z" stroke="#d6432b" fill="#d6432b"  /><path d="M 914 62 L 923 11 L 842 -16 Z" stroke="#d97565" fill="#d97565"  /><path d="M 938 418 L 961 114 L 938 308 Z" stroke="#ce2c1d" fill="#ce2c1d"  /><path d="M 115 -68 L 62 -84 L 109 -24 Z" stroke="#fee6c4" fill="#fee6c4"  /><path d="M 59 5 L -48 86 L 55 68 Z" stroke="#fee4bf" fill="#fee4bf"  /><path d="M 189 -104 L 62 -84 L 115 -68 Z" stroke="#fee4be" fill="#fee4be"  /><path d="M 961 114 L 923 11 L 914 62 Z" stroke="#d86d54" fill="#d86d54"  /><path d="M 805 536 L 916 534 L 854 496 Z" stroke="#b60403" fill="#b60403"  /><path d="M 854 496 L 916 534 L 889 446 Z" stroke="#b50302" fill="#b50302"  /><path d="M 730 540 L 916 534 L 805 536 Z" stroke="#b90906" fill="#b90906"  /><path d="M -63 505 L -36 462 L -139 444 Z" stroke="#dc7d70" fill="#dc7d70"  /><path d="M -33 143 L -111 164 L -63 231 Z" stroke="#fdc59e" fill="#fdc59e"  /><path d="M -51 -32 L -48 86 L 59 5 Z" stroke="#feecd1" fill="#feecd1"  /><path d="M 923 11 L 876 -114 L 842 -16 Z" stroke="#da7a6e" fill="#da7a6e"  /><path d="M 812 -77 L 876 -114 L 706 -111 Z" stroke="#df8274" fill="#df8274"  /><path d="M 706 -111 L 876 -114 L 310 -114 Z" stroke="#ea9480" fill="#ea9480"  /><path d="M -119 344 L -13 342 L -30 315 Z" stroke="#ec9782" fill="#ec9782"  /><path d="M -36 462 L -63 505 L 50 534 Z" stroke="#d9786d" fill="#d9786d"  /><path d="M -48 86 L -111 164 L -33 143 Z" stroke="#fdd4aa" fill="#fdd4aa"  /><path d="M -63 231 L -120 267 L -30 315 Z" stroke="#f4a78c" fill="#f4a78c"  /><path d="M -97 43 L -111 164 L -48 86 Z" stroke="#fedeb2" fill="#fedeb2"  /><path d="M -138 237 L -120 267 L -63 231 Z" stroke="#f7af90" fill="#f7af90"  /><path d="M -120 267 L -119 344 L -30 315 Z" stroke="#ef9b85" fill="#ef9b85"  /><path d="M 62 -84 L -51 -32 L 59 5 Z" stroke="#feeed4" fill="#feeed4"  /><path d="M -130 8 L -138 237 L -111 164 Z" stroke="#fdd3a9" fill="#fdd3a9"  /><path d="M -111 164 L -138 237 L -63 231 Z" stroke="#fcbb97" fill="#fcbb97"  /><path d="M -120 267 L -138 237 L -119 344 Z" stroke="#f3a389" fill="#f3a389"  /><path d="M -51 -32 L -97 43 L -48 86 Z" stroke="#feeacc" fill="#feeacc"  /><path d="M -139 444 L -85 525 L -63 505 Z" stroke="#da7a6e" fill="#da7a6e"  /><path d="M -63 505 L -85 525 L 50 534 Z" stroke="#d9786d" fill="#d9786d"  /><path d="M 961 114 L 938 -114 L 923 11 Z" stroke="#d8776b" fill="#d8776b"  /><path d="M 923 11 L 938 -114 L 876 -114 Z" stroke="#d9786d" fill="#d9786d"  /><path d="M 62 -84 L -63 -72 L -51 -32 Z" stroke="#fef0d9" fill="#fef0d9"  /><path d="M -51 -32 L -130 8 L -97 43 Z" stroke="#feefd6" fill="#feefd6"  /><path d="M -103 -97 L -63 -72 L 62 -84 Z" stroke="#fef0d9" fill="#fef0d9"  /><path d="M -138 237 L -139 444 L -119 344 Z" stroke="#eb9581" fill="#eb9581"  /><path d="M -119 344 L -139 444 L -36 462 Z" stroke="#e38777" fill="#e38777"  /><path d="M -97 43 L -130 8 L -111 164 Z" stroke="#fee3bd" fill="#fee3bd"  /><path d="M -63 -72 L -130 8 L -51 -32 Z" stroke="#fef0d9" fill="#fef0d9"  /><path d="M 189 -104 L -103 -97 L 62 -84 Z" stroke="#feebce" fill="#feebce"  /><path d="M -63 -72 L -103 -97 L -130 8 Z" stroke="#fef0d9" fill="#fef0d9"  /><path d="M 310 -114 L -103 -97 L 189 -104 Z" stroke="#fee3bc" fill="#fee3bc"  /></svg>